<svg width="1829" height="424" viewBox="0 0 1829 424" fill="none" xmlns="http://www.w3.org/2000/svg">
<path d="M5 405.251L69.676 418.407C76.3263 419.759 83.2259 419.162 89.5448 416.686L166.744 386.442C170.838 384.838 175.195 384.015 179.592 384.015H240.487C247.875 384.015 255.076 381.692 261.071 377.374L319.994 334.939C328.132 329.078 338.382 326.964 348.175 329.127L391.368 338.668C399.281 340.416 407.555 339.382 414.794 335.74L470.414 307.76C479.397 303.242 489.883 302.778 499.23 306.486L545.741 324.936C558.921 330.164 573.951 326.98 583.878 316.855L624.527 275.4C631.967 267.813 642.433 263.99 653.01 264.996L756.768 274.86C763.321 275.484 769.918 274.258 775.81 271.322L878.249 220.281C881.489 218.667 884.958 217.562 888.535 217.005L1104.68 183.329C1110.66 182.398 1116.78 183.021 1122.44 185.14L1188.48 209.832C1201.51 214.706 1216.19 211.45 1225.94 201.524L1283.35 143.08C1291.24 135.051 1302.49 131.274 1313.62 132.917L1434.33 150.731C1444.69 152.26 1455.2 149.097 1463 142.101L1504.1 105.216C1513.05 97.1842 1525.49 94.2745 1537.07 97.4993L1581.75 109.935C1589.26 112.026 1597.25 111.566 1604.47 108.627L1661.63 85.3627C1667.26 83.0706 1673.39 82.2753 1679.42 83.0544L1744.06 91.4059C1748.75 92.0109 1753.5 91.6684 1758.05 90.3987L1824 71.9844" stroke="url(#paint0_linear_414_260)" stroke-opacity="0.15" stroke-width="9.39258" stroke-linecap="round" stroke-linejoin="round"/>
<g opacity="0.542522" filter="url(#filter0_f_414_260)">
<path d="M764.566 243.962C758.334 241.686 764.795 238.854 771.026 241.13L797.446 250.78C797.985 250.977 834.136 238.082 834.136 238.082C837.872 236.691 841.986 235.968 846.157 235.968H877.513C877.975 235.968 905.057 215.767 905.057 215.767C911.807 211.407 920.987 209.822 929.599 211.528L950.098 215.588C950.603 215.688 977.491 204.598 977.491 204.598C985.25 201.098 994.829 200.743 1003.01 203.653L1026.16 204.043C1026.96 204.328 1027.92 204.168 1028.48 203.653L1049.28 184.632C1054.94 179.453 1063.65 176.705 1072.54 177.291L1102.76 178.095C1139.97 180.546 1259.28 126.195 1278.14 106.156C1278.14 106.156 1313.15 132.831 1323.51 139.004C1323.51 139.004 1360.19 112.924 1367.92 112.924C1380.21 112.924 1417.15 131.023 1417.15 131.023C1417.34 131.099 1479.35 94.3276 1487.31 94.8242C1498.29 95.5095 1508.79 102.167 1515.62 106.156C1516.6 106.732 1551.33 94.8242 1551.33 94.8242C1559.51 88.6767 1561.57 94.5167 1571.96 98.3398L1593.07 106.103C1593.73 106.349 1636.29 83.9647 1636.29 83.9647C1641.72 80.7387 1602.42 116.365 1593.07 112.924L1559.06 102.064C1558.32 101.791 1526.77 122.801 1519.2 122.335C1512.92 121.95 1487.31 106.156 1487.31 106.156C1486.27 105.531 1437.42 146.453 1437.42 146.453C1431.09 147.553 1400.68 148.729 1394.93 146.453L1376.12 139.004C1356.55 131.254 1319.13 183.026 1312.48 189.356L1296.36 166.939C1296.36 166.939 1264.22 200.399 1243.38 203.653C1222.55 206.908 1192.64 192.243 1192.64 192.243L1151.46 188.041C1150.11 188.529 1148.71 188.932 1147.28 189.246L1110.5 197.298C1107.28 198.003 1103.91 198.252 1100.56 198.032L1070.35 196.042C1069.71 196.001 1069.09 196.197 1068.68 196.567L1047.89 215.588C1040.01 222.788 1026.62 225.041 1015.4 221.05L993.063 211.528C992.479 211.32 964.525 225.224 964.525 225.224C958.266 228.047 950.75 228.851 943.688 227.452L923.189 221.05C922.574 220.928 884.27 241.13 884.27 241.13C881.855 242.69 873.008 238.98 843.725 242.272C833.358 243.438 808.972 253.374 808.972 253.374C801.465 256.17 796.236 258.298 788.7 255.546L764.566 243.962Z" fill="url(#paint1_linear_414_260)"/>
</g>
<path d="M5 341.597L70.2841 327.019C73.9494 326.2 77.4598 324.8 80.6819 322.87L156.507 277.464C161.963 274.196 168.205 272.47 174.565 272.47H221.727C229.453 272.47 236.964 269.925 243.098 265.227L304.761 218.003C315.672 209.647 330.452 208.416 342.595 214.853L469.926 282.354C481.936 288.72 496.539 287.592 507.427 279.456L555.237 243.734C563.054 237.893 572.947 235.565 582.548 237.306L638.143 247.39C646.104 248.834 654.32 247.487 661.403 243.576L733.69 203.669C744.771 197.551 758.286 197.864 769.072 204.488L811.214 230.368C823.486 237.905 839.115 237.193 850.65 228.571L870.39 213.817C878.493 207.761 888.811 205.49 898.708 207.583L947.288 217.861C956.713 219.855 966.543 217.893 974.48 212.434L1030.62 173.827C1036.05 170.088 1042.43 167.954 1049.03 167.671L1114.39 164.862C1118.02 164.706 1121.66 165.115 1125.17 166.075L1179.21 180.853C1191.32 184.165 1204.28 180.766 1213.2 171.937L1264.07 121.619C1273.64 112.151 1287.78 108.982 1300.47 113.458L1327.32 122.921C1401.23 148.975 1483.28 136.355 1545.94 89.2909L1573.21 68.8081C1585.25 59.7712 1601.7 59.3965 1614.13 67.8762L1655.26 95.9325C1664.65 102.337 1676.56 103.806 1687.22 99.8753L1743.81 79.0184C1748.65 77.2335 1753.04 74.4043 1756.66 70.7317L1824 2.52148" stroke="url(#paint2_linear_414_260)" stroke-opacity="0.15" stroke-width="4.68651" stroke-linecap="round" stroke-linejoin="round"/>
<defs>
<filter id="filter0_f_414_260" x="696.997" y="18.7239" width="1004.84" height="303.138" filterUnits="userSpaceOnUse" color-interpolation-filters="sRGB">
<feFlood flood-opacity="0" result="BackgroundImageFix"/>
<feBlend mode="normal" in="SourceGraphic" in2="BackgroundImageFix" result="shape"/>
<feGaussianBlur stdDeviation="32.517" result="effect1_foregroundBlur_414_260"/>
</filter>
<linearGradient id="paint0_linear_414_260" x1="1900.89" y1="99.0009" x2="1691.93" y2="954.292" gradientUnits="userSpaceOnUse">
<stop stop-color="#FF7144" stop-opacity="0.01"/>
<stop offset="0.0949252" stop-color="#FF8979"/>
<stop offset="0.239409" stop-color="#FF4DCA"/>
<stop offset="0.442535" stop-color="#E930FF"/>
<stop offset="0.940665" stop-color="#E44D88"/>
<stop offset="0.970958" stop-color="#E34E81" stop-opacity="0.594203"/>
<stop offset="1" stop-color="#E3507A" stop-opacity="0.01"/>
</linearGradient>
<linearGradient id="paint1_linear_414_260" x1="1224.26" y1="3.73341" x2="1154.64" y2="338.486" gradientUnits="userSpaceOnUse">
<stop stop-color="#054BFF" stop-opacity="0.389719"/>
<stop offset="0.445538" stop-color="#3D53CB"/>
<stop offset="0.790756" stop-color="#6FBEDA"/>
<stop offset="1" stop-color="#38B7FF" stop-opacity="0.489074"/>
</linearGradient>
<linearGradient id="paint2_linear_414_260" x1="828.96" y1="511.135" x2="963.482" y2="-142.648" gradientUnits="userSpaceOnUse">
<stop stop-color="#45AFEE" stop-opacity="0.01"/>
<stop offset="0.0375866" stop-color="#43B1EC" stop-opacity="0.615533"/>
<stop offset="0.0805049" stop-color="#41B3E9" stop-opacity="0.767526"/>
<stop offset="0.146149" stop-color="#3EB7E5"/>
<stop offset="0.747659" stop-color="#23DBBD"/>
<stop offset="0.842081" stop-color="#1EE0B7" stop-opacity="0.852977"/>
<stop offset="0.896184" stop-color="#1CE4B3" stop-opacity="0.768733"/>
<stop offset="0.927591" stop-color="#1BE5B1" stop-opacity="0.144475"/>
<stop offset="1" stop-color="#17EAAC" stop-opacity="0.01"/>
</linearGradient>
</defs>
</svg>
