<svg width="277" height="153" viewBox="0 0 277 153" fill="none" xmlns="http://www.w3.org/2000/svg">
<path d="M111.91 39.0801L111.91 120.292" stroke="#E6B4B4" stroke-width="0.821663"/>
<rect width="7.02542" height="30.531" rx="1.64333" transform="matrix(1 0 0 -1 108.395 108.08)" fill="#E6B4B4"/>
<path d="M54.6836 120.293L54.6836 39.0806" stroke="#E6B4B4" stroke-width="0.821663"/>
<rect x="51.168" y="51.293" width="7.02542" height="30.531" rx="1.64333" fill="#E6B4B4"/>
<line x1="188.269" y1="141.665" x2="188.269" y2="39.0809" stroke="#E6B4B4" stroke-width="0.821663"/>
<rect x="184.664" y="51.2949" width="7.02542" height="24.4248" rx="1.64333" fill="#E6B4B4"/>
<line x1="245.472" y1="112.355" x2="245.472" y2="39.0811" stroke="#E6B4B4" stroke-width="0.821663"/>
<rect x="241.867" y="47.8408" width="7.02542" height="27.8761" rx="1.64333" fill="#E6B4B4"/>
<line x1="226.406" y1="152.831" x2="226.406" y2="54.4341" stroke="#E6B4B4" stroke-width="0.821663"/>
<rect x="222.801" y="69.6123" width="7.02542" height="28.0885" rx="1.64333" fill="#E6B4B4"/>
<line x1="264.554" y1="129.453" x2="264.554" y2="41.5239" stroke="#9DC8B1" stroke-width="0.821663"/>
<rect x="260.949" y="50.9131" width="7.02542" height="29.8789" rx="1.64333" fill="#9DC8B1"/>
<line x1="207.339" y1="151.782" x2="207.339" y2="41.8706" stroke="#9DC8B1" stroke-width="0.821663"/>
<rect x="203.734" y="54.955" width="7.02542" height="42.7434" rx="1.64333" fill="#9DC8B1"/>
<line x1="35.7064" y1="111.133" x2="35.7064" y2="26.8673" stroke="#9DC8B1" stroke-width="0.821663"/>
<rect x="32.1016" y="41.5234" width="7.02542" height="34.1947" rx="1.64333" fill="#9DC8B1"/>
<line x1="16.6556" y1="138.002" x2="16.6556" y2="36.6392" stroke="#9DC8B1" stroke-width="0.821663"/>
<rect x="13.0508" y="70.8331" width="7.02542" height="52.5133" rx="1.64333" fill="#9DC8B1"/>
<line x1="73.8587" y1="141.664" x2="73.8587" y2="39.08" stroke="#9DC8B1" stroke-width="0.821663"/>
<rect x="70.2539" y="64.4834" width="7.02542" height="42.0106" rx="1.64333" fill="#9DC8B1"/>
<line x1="92.9212" y1="134.336" x2="92.9212" y2="54.9553" stroke="#9DC8B1" stroke-width="0.821663"/>
<rect x="89.3164" y="70.832" width="7.02542" height="52.5133" rx="1.64333" fill="#9DC8B1"/>
<line x1="169.21" y1="129.803" x2="169.21" y2="27.2186" stroke="#9DC8B1" stroke-width="0.821663"/>
<rect x="165.605" y="80.6055" width="7.02542" height="35.4159" rx="1.64333" fill="#9DC8B1"/>
<line x1="150.128" y1="112.354" x2="150.128" y2="26.8677" stroke="#9DC8B1" stroke-width="0.821663"/>
<rect x="146.523" y="58.4609" width="7.02542" height="42.7434" rx="1.64333" fill="#9DC8B1"/>
<line x1="131.062" y1="112.355" x2="131.062" y2="0.000488259" stroke="#9DC8B1" stroke-width="0.821663"/>
<rect x="127.457" y="41.5235" width="7.02542" height="56.177" rx="1.64333" fill="#9DC8B1"/>
<line x1="277" y1="123.411" x2="-4.55194e-08" y2="123.411" stroke="#7786A5" stroke-opacity="0.5" stroke-width="0.821663"/>
<line x1="277" y1="82.4108" x2="-4.55194e-08" y2="82.4108" stroke="#7786A5" stroke-opacity="0.5" stroke-width="0.821663"/>
<line x1="277" y1="41.4108" x2="-4.55194e-08" y2="41.4108" stroke="#7786A5" stroke-opacity="0.5" stroke-width="0.821663"/>
</svg>
