<svg width="290" height="91" viewBox="0 0 290 91" fill="none" xmlns="http://www.w3.org/2000/svg">
<path d="M28.3953 74.176L1.76905 88.1629C1.29617 88.4113 1 88.9014 1 89.4355V89.5624C1 90.3564 1.64366 91 2.43763 91H287.562C288.356 91 289 90.3564 289 89.5624V76.4996C289 75.568 288.128 74.8824 287.222 75.1028L268.384 79.6892C268.273 79.7163 268.159 79.73 268.044 79.73H253.63C253.459 79.73 253.289 79.7606 253.129 79.8202L230.113 88.3827C229.794 88.5016 229.443 88.5031 229.122 88.3869L210.774 81.7347C210.479 81.6278 210.158 81.6202 209.858 81.7131L188.444 88.3517C188.008 88.487 187.533 88.4069 187.165 88.1358L160.783 68.691C160.236 68.2881 159.482 68.3226 158.975 68.7737L136.657 88.6104C136.304 88.9242 135.819 89.0446 135.36 88.9323L114.102 83.7321C113.919 83.6873 113.729 83.6789 113.542 83.7076L96.2184 86.368C96.0804 86.3892 95.9401 86.3902 95.8018 86.3709L76.6176 83.698C76.457 83.6756 76.2938 83.6806 76.1349 83.7127L50.0128 88.9829C49.6074 89.0647 49.1864 88.9679 48.8574 88.7174L29.9349 74.305C29.4904 73.9664 28.8899 73.9161 28.3953 74.176Z" fill="url(#paint0_linear_414_260)"/>
<path d="M13 66.1164L36.6596 21.2724C37.9559 18.8155 41.5515 19.0613 42.5014 21.6717L57.9046 64.0022C58.6331 66.004 61.0766 66.7499 62.7988 65.4962L83.6557 50.3132C84.6252 49.6075 85.9076 49.5024 86.9789 50.041L102.54 57.8642C103.486 58.3395 104.605 58.317 105.531 57.8041L119.147 50.2594C120.332 49.6027 121.802 49.7629 122.818 50.6596L138.759 64.7295C140.499 66.2655 143.244 65.4978 143.935 63.2819L162.452 3.89756C163.36 0.987937 167.434 0.870927 168.507 3.7237L190.108 61.1673C190.955 63.4192 193.889 63.9682 195.493 62.1745L211.018 44.8089C212.357 43.3109 214.729 43.402 215.949 44.9984L229.516 62.745C230.807 64.4349 233.357 64.419 234.628 62.7133L253.895 36.8495C254.5 36.0382 255.452 35.5602 256.463 35.5602H267.876C268.653 35.5602 269.405 35.2771 269.989 34.7637L289 18.0636" stroke="url(#paint1_linear_414_260)" stroke-width="1.60123"/>
<path d="M1 81.9599L14.6717 60.6789C15.718 59.0503 17.9587 58.715 19.4358 59.9661L36.0773 74.0609C37.7274 75.4586 40.2599 74.8526 41.0988 72.8594L52.2396 46.3876C53.3189 43.823 56.9302 43.7602 58.098 46.2858L66.9963 65.5297C67.5202 66.6627 68.6548 67.3881 69.9031 67.3881H94.9219C95.8044 67.3881 96.6479 67.0238 97.253 66.3814L109.226 53.6704C110.627 52.1828 113.044 52.3704 114.199 54.0563L131.508 79.3243C132.916 81.38 136.029 81.1107 137.064 78.8438L156.004 37.3317C157.14 34.843 160.671 34.8316 161.823 37.313L170.273 55.5224L178.365 77.649C179.13 79.7409 181.743 80.4323 183.443 78.9922L206.596 59.3695C207.796 58.3523 209.558 58.3576 210.752 59.3819L234.717 79.9388C236.03 81.0651 238 80.9451 239.166 79.6679L267 49.194" stroke="url(#paint2_linear_414_260)" stroke-width="1.60123"/>
<defs>
<linearGradient id="paint0_linear_414_260" x1="145" y1="68" x2="145.036" y2="87.3227" gradientUnits="userSpaceOnUse">
<stop stop-color="#E1EDFD"/>
<stop offset="1" stop-color="#E1EDFD"/>
</linearGradient>
<linearGradient id="paint1_linear_414_260" x1="-6.91752" y1="55.8333" x2="288.943" y2="50.8436" gradientUnits="userSpaceOnUse">
<stop stop-color="#9DC8B1"/>
<stop offset="0.479167" stop-color="#9DC8B1"/>
<stop offset="1" stop-color="#9DC8B1" stop-opacity="0.4"/>
</linearGradient>
<linearGradient id="paint2_linear_414_260" x1="-18.9144" y1="83.2089" x2="276.896" y2="78.0943" gradientUnits="userSpaceOnUse">
<stop stop-color="#E5B4B4"/>
<stop offset="0.453125" stop-color="#E5B4B4"/>
<stop offset="1" stop-color="#EF5050" stop-opacity="0"/>
</linearGradient>
</defs>
</svg>
