<svg width="500" height="254" viewBox="0 0 500 254" fill="none" xmlns="http://www.w3.org/2000/svg">
<path d="M228.891 75.9598C228.891 76.7944 228.372 77.5413 227.59 77.8334L213.192 83.2108C211.885 83.699 210.492 82.7325 210.492 81.3372V58.4394C210.492 57.6424 210.965 56.9215 211.697 56.6045L226.095 50.3618C227.416 49.7892 228.891 50.7573 228.891 52.1968V75.9598Z" fill="#BDCAD6"/>
<path d="M25.4804 151.791C25.4804 152.625 24.9625 153.372 24.1811 153.664L22.0483 154.462C20.7411 154.951 19.3477 153.984 19.3477 152.588V140.331C19.3477 139.537 19.8182 138.817 20.5463 138.499L22.6791 137.566C24.0004 136.988 25.4804 137.957 25.4804 139.399V151.791Z" fill="#BDCAD6"/>
<path d="M46.9446 144.709C46.9446 145.545 46.4242 146.293 45.6399 146.584L42.4843 147.754C41.178 148.238 39.7891 147.272 39.7891 145.879V132.247C39.7891 131.45 40.2618 130.73 40.9925 130.412L44.1481 129.042C45.4689 128.469 46.9446 129.437 46.9446 130.877V144.709Z" fill="#BDCAD6"/>
<path d="M70.4508 135.611C70.4508 136.446 69.9313 137.194 69.1481 137.485L64.9708 139.039C63.6641 139.525 62.2734 138.559 62.2734 137.165V122.134C62.2734 121.338 62.7454 120.618 63.4751 120.3L67.6525 118.482C68.9735 117.907 70.4508 118.875 70.4508 120.315V135.611Z" fill="#BDCAD6"/>
<path d="M99.0735 124.491C99.0735 125.326 98.5551 126.072 97.7731 126.364L91.5511 128.687C90.244 129.175 88.8516 128.209 88.8516 126.814V111.014C88.8516 110.217 89.3245 109.496 90.0554 109.179L96.2774 106.479C97.5981 105.906 99.0735 106.874 99.0735 108.314V124.491Z" fill="#BDCAD6"/>
<path d="M133.828 111.348C133.828 112.182 133.31 112.929 132.528 113.221L124.263 116.311C122.956 116.8 121.562 115.833 121.562 114.438V96.8596C121.562 96.0628 122.035 95.342 122.766 95.0249L131.032 91.4385C132.353 90.8655 133.828 91.8336 133.828 93.2733V111.348Z" fill="#BDCAD6"/>
<path d="M175.736 96.1792C175.736 97.0143 175.217 97.7616 174.434 98.0532L164.124 101.896C162.817 102.383 161.426 101.416 161.426 100.021V79.6706C161.426 78.8736 161.899 78.1527 162.63 77.8356L172.94 73.3651C174.261 72.7925 175.736 73.7606 175.736 75.2001V96.1792Z" fill="#BDCAD6"/>
<path d="M25.4804 184.98C25.4804 185.899 24.8547 186.699 23.9632 186.921L21.8304 187.451C20.5687 187.765 19.3477 186.811 19.3477 185.511V172.848C19.3477 171.973 19.9159 171.2 20.7505 170.939L22.8833 170.272C24.1713 169.869 25.4804 170.831 25.4804 172.181V184.98Z" fill="#BDCAD6"/>
<path d="M46.9446 179.924C46.9446 180.843 46.3178 181.644 45.4254 181.865L42.2698 182.646C41.0086 182.959 39.7891 182.004 39.7891 180.705V166.783C39.7891 165.908 40.3582 165.134 41.1938 164.874L44.3494 163.89C45.637 163.488 46.9446 164.45 46.9446 165.799V179.924Z" fill="#BDCAD6"/>
<path d="M70.4508 173.858C70.4508 174.777 69.8248 175.577 68.9332 175.799L64.7558 176.837C63.4942 177.151 62.2734 176.196 62.2734 174.896V159.705C62.2734 158.83 62.8424 158.056 63.6778 157.796L67.8552 156.492C69.1428 156.091 70.4508 157.053 70.4508 158.402V173.858Z" fill="#BDCAD6"/>
<path d="M99.0735 166.78C99.0735 167.699 98.4475 168.5 97.5557 168.721L91.3337 170.267C90.0722 170.58 88.8516 169.626 88.8516 168.326V151.617C88.8516 150.741 89.4211 149.967 90.2572 149.707L96.4791 147.77C97.7666 147.37 99.0735 148.332 99.0735 149.68V166.78Z" fill="#BDCAD6"/>
<path d="M133.828 157.682C133.828 158.6 133.203 159.4 132.312 159.623L124.047 161.686C122.785 162.001 121.562 161.047 121.562 159.746V141.506C121.562 140.631 122.132 139.857 122.968 139.597L131.234 137.025C132.521 136.624 133.828 137.586 133.828 138.935V157.682Z" fill="#2551AF"/>
<path d="M175.735 147.571C175.735 148.49 175.11 149.29 174.218 149.512L162.885 152.331C161.623 152.645 160.402 151.69 160.402 150.39V129.374C160.402 128.498 160.972 127.724 161.808 127.464L173.141 123.937C174.428 123.536 175.735 124.498 175.735 125.847V147.571Z" fill="#BDCAD6"/>
<path d="M228.891 134.427C228.891 135.345 228.265 136.146 227.373 136.367L212.975 139.947C211.713 140.261 210.492 139.307 210.492 138.007V114.208C210.492 113.332 211.063 112.558 211.899 112.298L226.298 107.83C227.585 107.431 228.891 108.393 228.891 109.741V134.427Z" fill="#BDCAD6"/>
<path d="M228.891 191.857C228.891 192.865 228.14 193.716 227.14 193.842L212.742 195.655C211.548 195.805 210.492 194.874 210.492 193.67V170.005C210.492 169.043 211.178 168.216 212.124 168.039L226.523 165.346C227.753 165.115 228.891 166.059 228.891 167.311V191.857Z" fill="#BDCAD6"/>
<path d="M25.4804 217.136C25.4804 218.143 24.7318 218.993 23.7329 219.12L21.6001 219.392C20.405 219.544 19.3477 218.612 19.3477 217.408V205.39C19.3477 204.429 20.0321 203.603 20.9771 203.425L23.1099 203.023C24.3413 202.791 25.4804 203.735 25.4804 204.988V217.136Z" fill="#BDCAD6"/>
<path d="M46.9446 215.11C46.9446 216.119 46.1932 216.97 45.192 217.095L42.0365 217.488C40.843 217.637 39.7891 216.706 39.7891 215.503V202.362C39.7891 201.398 40.4765 200.571 41.4241 200.395L44.5797 199.81C45.8095 199.582 46.9446 200.525 46.9446 201.776V215.11Z" fill="#BDCAD6"/>
<path d="M70.4508 212.077C70.4508 213.086 69.6999 213.936 68.6992 214.062L64.5219 214.584C63.328 214.734 62.2734 213.803 62.2734 212.6V197.302C62.2734 196.34 62.9579 195.515 63.9029 195.336L68.0803 194.549C69.3117 194.317 70.4508 195.261 70.4508 196.514V212.077Z" fill="#BDCAD6"/>
<path d="M99.0735 208.035C99.0735 209.043 98.324 209.893 97.3244 210.02L91.1024 210.806C89.9078 210.957 88.8516 210.026 88.8516 208.822V192.246C88.8516 191.285 89.5359 190.459 90.4808 190.281L96.7027 189.107C97.9342 188.875 99.0735 189.819 99.0735 191.072V208.035Z" fill="#BDCAD6"/>
<path d="M133.828 203.989C133.828 204.997 133.078 205.848 132.077 205.974L123.812 207.011C122.618 207.161 121.562 206.23 121.562 205.027V186.18C121.562 185.219 122.247 184.393 123.192 184.215L131.458 182.658C132.689 182.426 133.828 183.37 133.828 184.623V203.989Z" fill="#BDCAD6"/>
<path d="M175.735 198.934C175.735 199.942 174.984 200.793 173.983 200.918L162.65 202.335C161.457 202.484 160.402 201.553 160.402 200.35V179.104C160.402 178.141 161.088 177.316 162.033 177.138L173.366 175.01C174.597 174.779 175.735 175.724 175.735 176.976V198.934Z" fill="#BDCAD6"/>
<path d="M475.234 151.791C475.234 152.625 475.752 153.372 476.534 153.664L478.668 154.462C479.975 154.951 481.368 153.984 481.368 152.589V140.331C481.368 139.537 480.898 138.817 480.169 138.499L478.036 137.566C476.714 136.988 475.234 137.956 475.234 139.398V151.791Z" fill="#2551AF"/>
<path d="M453.77 144.709C453.77 145.545 454.29 146.293 455.074 146.584L458.23 147.754C459.536 148.238 460.925 147.272 460.925 145.879V132.247C460.925 131.45 460.452 130.73 459.722 130.412L456.566 129.042C455.245 128.469 453.77 129.437 453.77 130.877V144.709Z" fill="#2551AF"/>
<path d="M430.258 135.611C430.258 136.446 430.777 137.194 431.56 137.485L435.738 139.039C437.045 139.525 438.435 138.559 438.435 137.165V122.134C438.435 121.338 437.963 120.618 437.233 120.3L433.056 118.482C431.735 117.907 430.258 118.875 430.258 120.315V135.611Z" fill="#2551AF"/>
<path d="M401.637 124.491C401.637 125.326 402.155 126.073 402.937 126.364L409.159 128.687C410.466 129.175 411.859 128.209 411.859 126.814V111.014C411.859 110.217 411.386 109.496 410.655 109.179L404.433 106.479C403.112 105.906 401.637 106.874 401.637 108.314V124.491Z" fill="#2551AF"/>
<path d="M366.883 111.348C366.883 112.182 367.401 112.929 368.182 113.221L376.448 116.311C377.755 116.8 379.148 115.833 379.148 114.438V96.8596C379.148 96.0628 378.675 95.342 377.944 95.0249L369.679 91.4385C368.358 90.8655 366.883 91.8336 366.883 93.2733V111.348Z" fill="#2551AF"/>
<path d="M324.973 96.1792C324.973 97.0144 325.492 97.7617 326.275 98.0533L336.586 101.896C337.893 102.383 339.284 101.416 339.284 100.022V79.6707C339.284 78.8737 338.811 78.1528 338.08 77.8357L327.768 73.3651C326.448 72.7925 324.973 73.7606 324.973 75.2V96.1792Z" fill="#2551AF"/>
<path d="M475.234 184.98C475.234 185.899 475.86 186.699 476.752 186.921L478.885 187.452C480.147 187.765 481.368 186.811 481.368 185.511V172.848C481.368 171.973 480.8 171.2 479.965 170.939L477.831 170.272C476.543 169.869 475.234 170.831 475.234 172.18V184.98Z" fill="#BDCAD6"/>
<path d="M453.77 179.924C453.77 180.843 454.396 181.644 455.289 181.865L458.444 182.646C459.706 182.959 460.925 182.004 460.925 180.705V166.783C460.925 165.908 460.356 165.134 459.52 164.874L456.365 163.89C455.077 163.488 453.77 164.45 453.77 165.799V179.924Z" fill="#BDCAD6"/>
<path d="M430.258 173.858C430.258 174.777 430.884 175.577 431.775 175.799L435.953 176.837C437.214 177.151 438.435 176.196 438.435 174.896V159.705C438.435 158.83 437.866 158.056 437.031 157.796L432.853 156.492C431.566 156.091 430.258 157.053 430.258 158.402V173.858Z" fill="#BDCAD6"/>
<path d="M401.637 166.781C401.637 167.699 402.263 168.5 403.155 168.722L409.377 170.267C410.638 170.581 411.859 169.626 411.859 168.326V151.617C411.859 150.741 411.289 149.968 410.453 149.707L404.231 147.771C402.944 147.37 401.637 148.332 401.637 149.68V166.781Z" fill="#BDCAD6"/>
<path d="M366.883 157.682C366.883 158.6 367.508 159.4 368.398 159.623L376.664 161.686C377.926 162.001 379.148 161.047 379.148 159.746V141.506C379.148 140.631 378.579 139.857 377.743 139.597L369.477 137.025C368.19 136.624 366.883 137.586 366.883 138.935V157.682Z" fill="#2551AF"/>
<path d="M324.973 147.571C324.973 148.49 325.599 149.29 326.49 149.512L337.823 152.331C339.085 152.645 340.306 151.69 340.306 150.39V129.374C340.306 128.498 339.736 127.724 338.9 127.464L327.567 123.937C326.28 123.536 324.973 124.498 324.973 125.847V147.571Z" fill="#2551AF"/>
<path d="M271.82 134.427C271.82 135.345 272.446 136.146 273.338 136.367L287.737 139.948C288.999 140.261 290.22 139.307 290.22 138.007V114.208C290.22 113.332 289.649 112.558 288.812 112.298L274.413 107.83C273.126 107.431 271.82 108.393 271.82 109.741V134.427Z" fill="#2551AF"/>
<path d="M271.82 191.857C271.82 192.865 272.57 193.716 273.57 193.842L287.97 195.655C289.164 195.805 290.22 194.874 290.22 193.67V170.005C290.22 169.043 289.534 168.216 288.587 168.039L274.188 165.345C272.958 165.115 271.82 166.059 271.82 167.311V191.857Z" fill="#BDCAD6"/>
<path d="M475.234 217.136C475.234 218.143 475.983 218.993 476.982 219.12L479.116 219.392C480.311 219.544 481.368 218.612 481.368 217.408V205.391C481.368 204.429 480.684 203.603 479.739 203.425L477.605 203.023C476.374 202.791 475.234 203.735 475.234 204.988V217.136Z" fill="#BDCAD6"/>
<path d="M453.77 215.11C453.77 216.119 454.521 216.97 455.522 217.095L458.678 217.488C459.871 217.637 460.925 216.706 460.925 215.503V202.362C460.925 201.398 460.238 200.571 459.29 200.395L456.134 199.81C454.905 199.582 453.77 200.525 453.77 201.776V215.11Z" fill="#BDCAD6"/>
<path d="M430.258 212.077C430.258 213.086 431.009 213.936 432.009 214.062L436.187 214.585C437.381 214.734 438.435 213.803 438.435 212.6V197.302C438.435 196.34 437.751 195.515 436.806 195.336L432.628 194.549C431.397 194.317 430.258 195.261 430.258 196.514V212.077Z" fill="#BDCAD6"/>
<path d="M401.637 208.035C401.637 209.043 402.386 209.893 403.386 210.019L409.608 210.806C410.803 210.957 411.859 210.026 411.859 208.822V192.246C411.859 191.284 411.174 190.459 410.23 190.281L404.008 189.107C402.776 188.874 401.637 189.819 401.637 191.072V208.035Z" fill="#BDCAD6"/>
<path d="M366.883 203.989C366.883 204.997 367.633 205.848 368.634 205.974L376.899 207.011C378.093 207.161 379.148 206.23 379.148 205.027V186.18C379.148 185.219 378.464 184.393 377.519 184.215L369.253 182.658C368.022 182.426 366.883 183.37 366.883 184.623V203.989Z" fill="#BDCAD6"/>
<path d="M324.973 198.934C324.973 199.942 325.724 200.793 326.725 200.918L338.058 202.335C339.251 202.484 340.306 201.553 340.306 200.35V179.104C340.306 178.141 339.62 177.316 338.675 177.138L327.342 175.01C326.111 174.779 324.973 175.724 324.973 176.976V198.934Z" fill="#BDCAD6"/>
<path d="M289.199 81.5443C289.199 82.9393 287.807 83.9058 286.5 83.4182L272.102 78.0469C271.319 77.7551 270.801 77.008 270.801 76.1731V52.0849C270.801 50.6453 272.276 49.6772 273.597 50.25L287.995 56.495C288.726 56.8121 289.199 57.5329 289.199 58.3298V81.5443Z" fill="#2551AF"/>
</svg>
