<svg width="500" height="779" viewBox="0 0 500 779" fill="none" xmlns="http://www.w3.org/2000/svg">
<path d="M10 243H490C494.971 243 499 247.029 499 252V769C499 773.971 494.971 778 490 778H9.99999C5.02943 778 1 773.971 1 769V252C1 247.029 5.02944 243 10 243Z" fill="url(#paint0_linear_1_763)" stroke="#E1EDFD" stroke-width="2"/>
<path d="M260 1H490C494.971 1 499 5.02944 499 10V769C499 773.971 494.971 778 490 778H260C255.029 778 251 773.971 251 769V10C251 5.02945 255.029 1 260 1Z" fill="url(#paint1_linear_1_763)" stroke="#E1EDFD" stroke-width="2"/>
<rect width="89" height="26" rx="3.47222" transform="matrix(-1 0 0 1 369 170)" fill="#2551AF"/>
<path d="M302.545 184.982H304.664C304.596 185.79 304.37 186.511 303.986 187.144C303.602 187.771 303.062 188.265 302.367 188.627C301.672 188.989 300.827 189.17 299.832 189.17C299.069 189.17 298.383 189.034 297.772 188.763C297.162 188.486 296.639 188.096 296.204 187.593C295.769 187.084 295.435 186.471 295.204 185.753C294.978 185.036 294.865 184.233 294.865 183.346V182.32C294.865 181.433 294.981 180.63 295.212 179.913C295.45 179.195 295.789 178.582 296.229 178.073C296.67 177.559 297.199 177.166 297.815 176.895C298.436 176.623 299.134 176.488 299.909 176.488C300.892 176.488 301.723 176.669 302.401 177.03C303.079 177.392 303.605 177.892 303.978 178.531C304.356 179.169 304.588 179.901 304.673 180.726H302.553C302.497 180.195 302.373 179.74 302.18 179.362C301.994 178.983 301.717 178.695 301.35 178.497C300.982 178.293 300.502 178.192 299.909 178.192C299.423 178.192 298.999 178.282 298.637 178.463C298.275 178.644 297.973 178.909 297.73 179.26C297.487 179.61 297.303 180.043 297.179 180.557C297.06 181.065 297.001 181.648 297.001 182.303V183.346C297.001 183.967 297.055 184.533 297.162 185.041C297.275 185.544 297.445 185.976 297.671 186.338C297.902 186.7 298.196 186.98 298.552 187.177C298.908 187.375 299.335 187.474 299.832 187.474C300.437 187.474 300.926 187.378 301.299 187.186C301.677 186.994 301.963 186.714 302.155 186.347C302.353 185.974 302.483 185.519 302.545 184.982ZM308.598 179.828V189H306.555V179.828H308.598ZM314.582 179.828L310.454 185.346H308.123L307.852 183.498H309.555L312.031 179.828H314.582ZM312.192 189L309.428 184.999L311.039 183.837L314.879 189H312.192ZM318.1 186.016L321.703 179.828H323.746V189H321.703V182.803L318.1 189H316.057V179.828H318.1V186.016ZM327.569 179.828H329.612L329.511 183.058C329.482 183.996 329.375 184.801 329.188 185.474C329.002 186.146 328.759 186.714 328.459 187.177C328.16 187.635 327.821 188.011 327.442 188.305C327.069 188.599 326.676 188.83 326.264 189H325.662V187.389L325.95 187.372C326.193 187.112 326.402 186.852 326.578 186.593C326.758 186.327 326.911 186.036 327.035 185.719C327.16 185.397 327.256 185.021 327.324 184.592C327.397 184.162 327.445 183.651 327.468 183.058L327.569 179.828ZM328.112 179.828H333.927V189H331.893V181.557H328.112V179.828ZM325.196 187.372H335.182V191.73H333.139V189H327.264V191.73H325.187L325.196 187.372ZM338.793 179.828V189H336.75V179.828H338.793ZM344.778 179.828L340.65 185.346H338.318L338.047 183.498H339.751L342.226 179.828H344.778ZM342.387 189L339.624 184.999L341.234 183.837L345.075 189H342.387ZM351.356 187.16V182.786C351.356 182.459 351.297 182.176 351.178 181.939C351.059 181.701 350.879 181.518 350.636 181.388C350.398 181.258 350.099 181.193 349.737 181.193C349.404 181.193 349.115 181.249 348.872 181.362C348.629 181.475 348.44 181.628 348.304 181.82C348.169 182.012 348.101 182.23 348.101 182.473H346.066C346.066 182.111 346.154 181.761 346.329 181.421C346.504 181.082 346.759 180.78 347.092 180.514C347.426 180.249 347.824 180.04 348.287 179.887C348.751 179.735 349.271 179.658 349.847 179.658C350.537 179.658 351.147 179.774 351.678 180.006C352.215 180.237 352.636 180.588 352.941 181.057C353.252 181.52 353.408 182.102 353.408 182.803V186.881C353.408 187.299 353.436 187.675 353.492 188.008C353.554 188.336 353.642 188.621 353.755 188.864V189H351.661C351.565 188.78 351.489 188.5 351.432 188.161C351.382 187.816 351.356 187.483 351.356 187.16ZM351.653 183.422L351.67 184.685H350.203C349.825 184.685 349.491 184.722 349.203 184.795C348.915 184.863 348.674 184.965 348.482 185.101C348.29 185.236 348.146 185.4 348.05 185.592C347.954 185.784 347.906 186.002 347.906 186.245C347.906 186.488 347.962 186.711 348.075 186.915C348.188 187.112 348.352 187.268 348.567 187.381C348.788 187.494 349.053 187.55 349.364 187.55C349.782 187.55 350.147 187.466 350.458 187.296C350.774 187.121 351.023 186.909 351.204 186.66C351.384 186.406 351.48 186.166 351.492 185.94L352.153 186.847C352.085 187.079 351.969 187.327 351.805 187.593C351.641 187.858 351.427 188.113 351.161 188.356C350.901 188.593 350.587 188.788 350.22 188.941C349.858 189.093 349.44 189.17 348.966 189.17C348.366 189.17 347.832 189.051 347.363 188.814C346.894 188.57 346.527 188.246 346.261 187.839C345.996 187.426 345.863 186.96 345.863 186.44C345.863 185.954 345.953 185.524 346.134 185.151C346.321 184.773 346.592 184.456 346.948 184.202C347.31 183.948 347.75 183.755 348.27 183.626C348.79 183.49 349.384 183.422 350.051 183.422H351.653Z" fill="#F1F7FF"/>
<path d="M295.43 249.68H301.445C303.372 249.68 304.961 249.354 306.211 248.703C307.461 248.026 308.385 247.089 308.984 245.891C309.609 244.667 309.922 243.247 309.922 241.633C309.922 240.174 309.635 238.885 309.062 237.766C308.516 236.62 307.669 235.734 306.523 235.109C305.378 234.458 303.932 234.133 302.188 234.133C300.807 234.133 299.531 234.406 298.359 234.953C297.188 235.5 296.25 236.268 295.547 237.258C294.844 238.247 294.492 239.445 294.492 240.852H283.203C283.203 237.727 284.036 235.005 285.703 232.688C287.396 230.37 289.661 228.56 292.5 227.258C295.339 225.956 298.464 225.305 301.875 225.305C305.729 225.305 309.102 225.93 311.992 227.18C314.883 228.404 317.135 230.214 318.75 232.609C320.365 235.005 321.172 237.974 321.172 241.516C321.172 243.312 320.755 245.057 319.922 246.75C319.089 248.417 317.891 249.927 316.328 251.281C314.792 252.609 312.917 253.677 310.703 254.484C308.49 255.266 306.003 255.656 303.242 255.656H295.43V249.68ZM295.43 258.234V252.414H303.242C306.341 252.414 309.062 252.766 311.406 253.469C313.75 254.172 315.716 255.188 317.305 256.516C318.893 257.818 320.091 259.367 320.898 261.164C321.706 262.935 322.109 264.901 322.109 267.062C322.109 269.719 321.602 272.089 320.586 274.172C319.57 276.229 318.138 277.974 316.289 279.406C314.466 280.839 312.331 281.932 309.883 282.688C307.435 283.417 304.766 283.781 301.875 283.781C299.479 283.781 297.122 283.456 294.805 282.805C292.513 282.128 290.43 281.125 288.555 279.797C286.706 278.443 285.221 276.75 284.102 274.719C283.008 272.661 282.461 270.227 282.461 267.414H293.75C293.75 268.872 294.115 270.174 294.844 271.32C295.573 272.466 296.576 273.365 297.852 274.016C299.154 274.667 300.599 274.992 302.188 274.992C303.984 274.992 305.521 274.667 306.797 274.016C308.099 273.339 309.089 272.401 309.766 271.203C310.469 269.979 310.82 268.56 310.82 266.945C310.82 264.862 310.443 263.195 309.688 261.945C308.932 260.669 307.852 259.732 306.445 259.133C305.039 258.534 303.372 258.234 301.445 258.234H295.43ZM368.125 249.562V259.406C368.125 263.677 367.669 267.362 366.758 270.461C365.846 273.534 364.531 276.06 362.812 278.039C361.12 279.992 359.102 281.438 356.758 282.375C354.414 283.312 351.81 283.781 348.945 283.781C346.654 283.781 344.518 283.495 342.539 282.922C340.56 282.323 338.776 281.398 337.188 280.148C335.625 278.898 334.271 277.323 333.125 275.422C332.005 273.495 331.146 271.203 330.547 268.547C329.948 265.891 329.648 262.844 329.648 259.406V249.562C329.648 245.292 330.104 241.633 331.016 238.586C331.953 235.513 333.268 233 334.961 231.047C336.68 229.094 338.711 227.661 341.055 226.75C343.398 225.812 346.003 225.344 348.867 225.344C351.159 225.344 353.281 225.643 355.234 226.242C357.214 226.815 358.997 227.714 360.586 228.938C362.174 230.161 363.529 231.737 364.648 233.664C365.768 235.565 366.628 237.844 367.227 240.5C367.826 243.13 368.125 246.151 368.125 249.562ZM356.836 260.891V248.039C356.836 245.982 356.719 244.185 356.484 242.648C356.276 241.112 355.951 239.81 355.508 238.742C355.065 237.648 354.518 236.763 353.867 236.086C353.216 235.409 352.474 234.914 351.641 234.602C350.807 234.289 349.883 234.133 348.867 234.133C347.591 234.133 346.458 234.38 345.469 234.875C344.505 235.37 343.685 236.164 343.008 237.258C342.331 238.326 341.81 239.758 341.445 241.555C341.107 243.326 340.938 245.487 340.938 248.039V260.891C340.938 262.948 341.042 264.758 341.25 266.32C341.484 267.883 341.823 269.224 342.266 270.344C342.734 271.438 343.281 272.336 343.906 273.039C344.557 273.716 345.299 274.211 346.133 274.523C346.992 274.836 347.93 274.992 348.945 274.992C350.195 274.992 351.302 274.745 352.266 274.25C353.255 273.729 354.089 272.922 354.766 271.828C355.469 270.708 355.99 269.25 356.328 267.453C356.667 265.656 356.836 263.469 356.836 260.891ZM375.625 240.07V237.062C375.625 234.901 376.094 232.935 377.031 231.164C377.969 229.393 379.349 227.974 381.172 226.906C382.995 225.839 385.234 225.305 387.891 225.305C390.625 225.305 392.904 225.839 394.727 226.906C396.576 227.974 397.956 229.393 398.867 231.164C399.805 232.935 400.273 234.901 400.273 237.062V240.07C400.273 242.18 399.805 244.12 398.867 245.891C397.956 247.661 396.589 249.081 394.766 250.148C392.943 251.216 390.69 251.75 388.008 251.75C385.299 251.75 383.021 251.216 381.172 250.148C379.349 249.081 377.969 247.661 377.031 245.891C376.094 244.12 375.625 242.18 375.625 240.07ZM383.086 237.062V240.07C383.086 240.982 383.255 241.854 383.594 242.688C383.958 243.495 384.505 244.159 385.234 244.68C385.99 245.174 386.901 245.422 387.969 245.422C389.089 245.422 390 245.174 390.703 244.68C391.406 244.159 391.927 243.495 392.266 242.688C392.604 241.854 392.773 240.982 392.773 240.07V237.062C392.773 236.099 392.591 235.214 392.227 234.406C391.888 233.573 391.354 232.909 390.625 232.414C389.922 231.893 389.01 231.633 387.891 231.633C386.849 231.633 385.964 231.893 385.234 232.414C384.505 232.909 383.958 233.573 383.594 234.406C383.255 235.214 383.086 236.099 383.086 237.062ZM402.812 272.062V269.055C402.812 266.919 403.281 264.966 404.219 263.195C405.182 261.424 406.576 260.005 408.398 258.938C410.247 257.87 412.513 257.336 415.195 257.336C417.904 257.336 420.169 257.87 421.992 258.938C423.815 260.005 425.195 261.424 426.133 263.195C427.07 264.966 427.539 266.919 427.539 269.055V272.062C427.539 274.198 427.07 276.151 426.133 277.922C425.221 279.693 423.854 281.112 422.031 282.18C420.208 283.247 417.956 283.781 415.273 283.781C412.565 283.781 410.286 283.247 408.438 282.18C406.589 281.112 405.182 279.693 404.219 277.922C403.281 276.151 402.812 274.198 402.812 272.062ZM410.312 269.055V272.062C410.312 273 410.521 273.885 410.938 274.719C411.354 275.552 411.927 276.216 412.656 276.711C413.411 277.206 414.284 277.453 415.273 277.453C416.523 277.453 417.5 277.206 418.203 276.711C418.906 276.216 419.388 275.552 419.648 274.719C419.935 273.885 420.078 273 420.078 272.062V269.055C420.078 268.117 419.896 267.245 419.531 266.438C419.167 265.604 418.62 264.94 417.891 264.445C417.188 263.924 416.289 263.664 415.195 263.664C414.102 263.664 413.19 263.924 412.461 264.445C411.758 264.94 411.224 265.604 410.859 266.438C410.495 267.245 410.312 268.117 410.312 269.055ZM417.969 234.25L390.195 278.703L384.727 275.812L412.5 231.359L417.969 234.25Z" fill="#2551AF"/>
<path d="M286.807 135.662H283.174L283.154 133.768H286.27C286.803 133.768 287.249 133.693 287.607 133.543C287.965 133.393 288.236 133.175 288.418 132.889C288.607 132.602 288.701 132.254 288.701 131.844C288.701 131.388 288.613 131.017 288.438 130.73C288.268 130.444 288.001 130.236 287.637 130.105C287.272 129.969 286.81 129.9 286.25 129.9H284.043V142H281.357V127.781H286.25C287.057 127.781 287.777 127.859 288.408 128.016C289.046 128.165 289.587 128.4 290.029 128.719C290.472 129.038 290.807 129.438 291.035 129.92C291.27 130.402 291.387 130.975 291.387 131.639C291.387 132.225 291.25 132.765 290.977 133.26C290.71 133.748 290.296 134.145 289.736 134.451C289.183 134.757 288.48 134.933 287.627 134.979L286.807 135.662ZM286.689 142H282.383L283.506 139.891H286.689C287.223 139.891 287.663 139.803 288.008 139.627C288.359 139.451 288.62 139.21 288.789 138.904C288.965 138.592 289.053 138.234 289.053 137.83C289.053 137.387 288.975 137.003 288.818 136.678C288.669 136.352 288.428 136.102 288.096 135.926C287.77 135.75 287.34 135.662 286.807 135.662H284.014L284.033 133.768H287.588L288.203 134.5C289.023 134.507 289.691 134.669 290.205 134.988C290.726 135.307 291.11 135.717 291.357 136.219C291.605 136.72 291.729 137.26 291.729 137.84C291.729 138.751 291.53 139.516 291.133 140.135C290.742 140.753 290.169 141.219 289.414 141.531C288.665 141.844 287.757 142 286.689 142ZM300.195 138.953L303.164 131.434H305.322L301.074 142H299.326L295.088 131.434H297.256L300.195 138.953ZM296.621 131.434V142H294.033V131.434H296.621ZM303.818 142V131.434H306.406V142H303.818ZM313.721 142.195C312.92 142.195 312.201 142.065 311.562 141.805C310.924 141.544 310.381 141.183 309.932 140.721C309.489 140.252 309.147 139.708 308.906 139.09C308.672 138.465 308.555 137.794 308.555 137.078V136.688C308.555 135.874 308.672 135.135 308.906 134.471C309.141 133.8 309.473 133.224 309.902 132.742C310.332 132.26 310.846 131.889 311.445 131.629C312.044 131.368 312.705 131.238 313.428 131.238C314.176 131.238 314.837 131.365 315.41 131.619C315.983 131.867 316.462 132.218 316.846 132.674C317.23 133.13 317.52 133.676 317.715 134.314C317.91 134.946 318.008 135.646 318.008 136.414V137.498H309.727V135.721H315.469V135.525C315.456 135.115 315.378 134.741 315.234 134.402C315.091 134.057 314.87 133.784 314.57 133.582C314.271 133.374 313.883 133.27 313.408 133.27C313.024 133.27 312.689 133.354 312.402 133.523C312.122 133.686 311.888 133.921 311.699 134.227C311.517 134.526 311.38 134.884 311.289 135.301C311.198 135.717 311.152 136.18 311.152 136.688V137.078C311.152 137.521 311.211 137.931 311.328 138.309C311.452 138.686 311.631 139.015 311.865 139.295C312.106 139.568 312.393 139.783 312.725 139.939C313.063 140.089 313.447 140.164 313.877 140.164C314.417 140.164 314.906 140.06 315.342 139.852C315.785 139.637 316.169 139.321 316.494 138.904L317.793 140.252C317.572 140.577 317.272 140.89 316.895 141.189C316.523 141.489 316.074 141.733 315.547 141.922C315.02 142.104 314.411 142.195 313.721 142.195ZM324.072 140.164C324.437 140.164 324.762 140.092 325.049 139.949C325.335 139.806 325.563 139.604 325.732 139.344C325.908 139.083 326.003 138.781 326.016 138.436H328.447C328.434 139.152 328.232 139.793 327.842 140.359C327.451 140.926 326.93 141.375 326.279 141.707C325.635 142.033 324.912 142.195 324.111 142.195C323.298 142.195 322.588 142.059 321.982 141.785C321.377 141.512 320.872 141.131 320.469 140.643C320.072 140.154 319.772 139.588 319.57 138.943C319.375 138.299 319.277 137.609 319.277 136.873V136.561C319.277 135.825 319.375 135.135 319.57 134.49C319.772 133.846 320.072 133.279 320.469 132.791C320.872 132.303 321.377 131.922 321.982 131.648C322.588 131.375 323.294 131.238 324.102 131.238C324.954 131.238 325.703 131.404 326.348 131.736C326.999 132.068 327.507 132.537 327.871 133.143C328.242 133.748 328.434 134.461 328.447 135.281H326.016C326.003 134.904 325.918 134.565 325.762 134.266C325.605 133.966 325.384 133.725 325.098 133.543C324.811 133.361 324.463 133.27 324.053 133.27C323.617 133.27 323.252 133.361 322.959 133.543C322.673 133.725 322.448 133.976 322.285 134.295C322.129 134.607 322.018 134.959 321.953 135.35C321.895 135.734 321.865 136.137 321.865 136.561V136.873C321.865 137.303 321.895 137.713 321.953 138.104C322.018 138.494 322.129 138.846 322.285 139.158C322.448 139.464 322.673 139.708 322.959 139.891C323.252 140.073 323.623 140.164 324.072 140.164ZM335.293 131.434V142H332.705V131.434H335.293ZM338.73 131.434V133.445H329.326V131.434H338.73ZM344.287 142.195C343.486 142.195 342.767 142.065 342.129 141.805C341.491 141.544 340.947 141.183 340.498 140.721C340.055 140.252 339.714 139.708 339.473 139.09C339.238 138.465 339.121 137.794 339.121 137.078V136.688C339.121 135.874 339.238 135.135 339.473 134.471C339.707 133.8 340.039 133.224 340.469 132.742C340.898 132.26 341.413 131.889 342.012 131.629C342.611 131.368 343.271 131.238 343.994 131.238C344.743 131.238 345.404 131.365 345.977 131.619C346.549 131.867 347.028 132.218 347.412 132.674C347.796 133.13 348.086 133.676 348.281 134.314C348.477 134.946 348.574 135.646 348.574 136.414V137.498H340.293V135.721H346.035V135.525C346.022 135.115 345.944 134.741 345.801 134.402C345.658 134.057 345.436 133.784 345.137 133.582C344.837 133.374 344.45 133.27 343.975 133.27C343.59 133.27 343.255 133.354 342.969 133.523C342.689 133.686 342.454 133.921 342.266 134.227C342.083 134.526 341.947 134.884 341.855 135.301C341.764 135.717 341.719 136.18 341.719 136.688V137.078C341.719 137.521 341.777 137.931 341.895 138.309C342.018 138.686 342.197 139.015 342.432 139.295C342.673 139.568 342.959 139.783 343.291 139.939C343.63 140.089 344.014 140.164 344.443 140.164C344.984 140.164 345.472 140.06 345.908 139.852C346.351 139.637 346.735 139.321 347.061 138.904L348.359 140.252C348.138 140.577 347.839 140.89 347.461 141.189C347.09 141.489 346.641 141.733 346.113 141.922C345.586 142.104 344.977 142.195 344.287 142.195ZM359.619 140.164C359.984 140.164 360.309 140.092 360.596 139.949C360.882 139.806 361.11 139.604 361.279 139.344C361.455 139.083 361.549 138.781 361.562 138.436H363.994C363.981 139.152 363.779 139.793 363.389 140.359C362.998 140.926 362.477 141.375 361.826 141.707C361.182 142.033 360.459 142.195 359.658 142.195C358.844 142.195 358.135 142.059 357.529 141.785C356.924 141.512 356.419 141.131 356.016 140.643C355.618 140.154 355.319 139.588 355.117 138.943C354.922 138.299 354.824 137.609 354.824 136.873V136.561C354.824 135.825 354.922 135.135 355.117 134.49C355.319 133.846 355.618 133.279 356.016 132.791C356.419 132.303 356.924 131.922 357.529 131.648C358.135 131.375 358.841 131.238 359.648 131.238C360.501 131.238 361.25 131.404 361.895 131.736C362.546 132.068 363.053 132.537 363.418 133.143C363.789 133.748 363.981 134.461 363.994 135.281H361.562C361.549 134.904 361.465 134.565 361.309 134.266C361.152 133.966 360.931 133.725 360.645 133.543C360.358 133.361 360.01 133.27 359.6 133.27C359.163 133.27 358.799 133.361 358.506 133.543C358.219 133.725 357.995 133.976 357.832 134.295C357.676 134.607 357.565 134.959 357.5 135.35C357.441 135.734 357.412 136.137 357.412 136.561V136.873C357.412 137.303 357.441 137.713 357.5 138.104C357.565 138.494 357.676 138.846 357.832 139.158C357.995 139.464 358.219 139.708 358.506 139.891C358.799 140.073 359.17 140.164 359.619 140.164ZM373.75 127.781V142H371.064V127.781H373.75ZM378.984 133.689V142H376.406V131.434H378.828L378.984 133.689ZM378.574 136.336H377.812C377.819 135.568 377.923 134.871 378.125 134.246C378.327 133.621 378.61 133.084 378.975 132.635C379.346 132.186 379.785 131.84 380.293 131.6C380.801 131.359 381.367 131.238 381.992 131.238C382.5 131.238 382.959 131.31 383.369 131.453C383.779 131.596 384.131 131.824 384.424 132.137C384.723 132.449 384.951 132.859 385.107 133.367C385.27 133.868 385.352 134.487 385.352 135.223V142H382.754V135.203C382.754 134.721 382.682 134.34 382.539 134.061C382.402 133.781 382.201 133.582 381.934 133.465C381.673 133.348 381.351 133.289 380.967 133.289C380.57 133.289 380.221 133.37 379.922 133.533C379.629 133.689 379.382 133.908 379.18 134.188C378.984 134.467 378.835 134.79 378.73 135.154C378.626 135.519 378.574 135.913 378.574 136.336ZM391.133 140.047L393.594 131.434H396.289L392.666 142H391.025L391.133 140.047ZM389.336 131.434L391.826 140.066L391.914 142H390.264L386.631 131.434H389.336ZM402.256 142.195C401.455 142.195 400.736 142.065 400.098 141.805C399.46 141.544 398.916 141.183 398.467 140.721C398.024 140.252 397.682 139.708 397.441 139.09C397.207 138.465 397.09 137.794 397.09 137.078V136.688C397.09 135.874 397.207 135.135 397.441 134.471C397.676 133.8 398.008 133.224 398.438 132.742C398.867 132.26 399.382 131.889 399.98 131.629C400.579 131.368 401.24 131.238 401.963 131.238C402.712 131.238 403.372 131.365 403.945 131.619C404.518 131.867 404.997 132.218 405.381 132.674C405.765 133.13 406.055 133.676 406.25 134.314C406.445 134.946 406.543 135.646 406.543 136.414V137.498H398.262V135.721H404.004V135.525C403.991 135.115 403.913 134.741 403.77 134.402C403.626 134.057 403.405 133.784 403.105 133.582C402.806 133.374 402.419 133.27 401.943 133.27C401.559 133.27 401.224 133.354 400.938 133.523C400.658 133.686 400.423 133.921 400.234 134.227C400.052 134.526 399.915 134.884 399.824 135.301C399.733 135.717 399.688 136.18 399.688 136.688V137.078C399.688 137.521 399.746 137.931 399.863 138.309C399.987 138.686 400.166 139.015 400.4 139.295C400.641 139.568 400.928 139.783 401.26 139.939C401.598 140.089 401.982 140.164 402.412 140.164C402.952 140.164 403.441 140.06 403.877 139.852C404.32 139.637 404.704 139.321 405.029 138.904L406.328 140.252C406.107 140.577 405.807 140.89 405.43 141.189C405.059 141.489 404.609 141.733 404.082 141.922C403.555 142.104 402.946 142.195 402.256 142.195ZM410.85 133.592V142H408.271V131.434H410.713L410.85 133.592ZM414.062 131.365L414.023 133.768C413.88 133.742 413.717 133.722 413.535 133.709C413.359 133.696 413.193 133.689 413.037 133.689C412.64 133.689 412.292 133.745 411.992 133.855C411.693 133.96 411.442 134.113 411.24 134.314C411.045 134.516 410.895 134.764 410.791 135.057C410.687 135.343 410.628 135.669 410.615 136.033L410.059 135.965C410.059 135.294 410.127 134.673 410.264 134.1C410.4 133.527 410.599 133.025 410.859 132.596C411.12 132.166 411.445 131.834 411.836 131.6C412.233 131.359 412.689 131.238 413.203 131.238C413.346 131.238 413.499 131.251 413.662 131.277C413.831 131.297 413.965 131.326 414.062 131.365ZM414.746 136.824V136.619C414.746 135.844 414.857 135.132 415.078 134.48C415.299 133.823 415.622 133.253 416.045 132.771C416.468 132.29 416.986 131.915 417.598 131.648C418.21 131.375 418.906 131.238 419.688 131.238C420.482 131.238 421.185 131.375 421.797 131.648C422.415 131.915 422.936 132.29 423.359 132.771C423.783 133.253 424.105 133.823 424.326 134.48C424.548 135.132 424.658 135.844 424.658 136.619V136.824C424.658 137.592 424.548 138.305 424.326 138.963C424.105 139.614 423.783 140.184 423.359 140.672C422.936 141.154 422.419 141.528 421.807 141.795C421.195 142.062 420.495 142.195 419.707 142.195C418.926 142.195 418.226 142.062 417.607 141.795C416.989 141.528 416.468 141.154 416.045 140.672C415.622 140.184 415.299 139.614 415.078 138.963C414.857 138.305 414.746 137.592 414.746 136.824ZM417.324 136.619V136.824C417.324 137.286 417.37 137.719 417.461 138.123C417.552 138.527 417.692 138.882 417.881 139.188C418.07 139.493 418.314 139.734 418.613 139.91C418.919 140.079 419.284 140.164 419.707 140.164C420.124 140.164 420.482 140.079 420.781 139.91C421.081 139.734 421.325 139.493 421.514 139.188C421.709 138.882 421.852 138.527 421.943 138.123C422.035 137.719 422.08 137.286 422.08 136.824V136.619C422.08 136.163 422.035 135.737 421.943 135.34C421.852 134.936 421.709 134.581 421.514 134.275C421.325 133.963 421.077 133.719 420.771 133.543C420.472 133.361 420.111 133.27 419.688 133.27C419.271 133.27 418.913 133.361 418.613 133.543C418.314 133.719 418.07 133.963 417.881 134.275C417.692 134.581 417.552 134.936 417.461 135.34C417.37 135.737 417.324 136.163 417.324 136.619ZM426.074 136.824V136.619C426.074 135.844 426.185 135.132 426.406 134.48C426.628 133.823 426.95 133.253 427.373 132.771C427.796 132.29 428.314 131.915 428.926 131.648C429.538 131.375 430.234 131.238 431.016 131.238C431.81 131.238 432.513 131.375 433.125 131.648C433.743 131.915 434.264 132.29 434.688 132.771C435.111 133.253 435.433 133.823 435.654 134.48C435.876 135.132 435.986 135.844 435.986 136.619V136.824C435.986 137.592 435.876 138.305 435.654 138.963C435.433 139.614 435.111 140.184 434.688 140.672C434.264 141.154 433.747 141.528 433.135 141.795C432.523 142.062 431.823 142.195 431.035 142.195C430.254 142.195 429.554 142.062 428.936 141.795C428.317 141.528 427.796 141.154 427.373 140.672C426.95 140.184 426.628 139.614 426.406 138.963C426.185 138.305 426.074 137.592 426.074 136.824ZM428.652 136.619V136.824C428.652 137.286 428.698 137.719 428.789 138.123C428.88 138.527 429.02 138.882 429.209 139.188C429.398 139.493 429.642 139.734 429.941 139.91C430.247 140.079 430.612 140.164 431.035 140.164C431.452 140.164 431.81 140.079 432.109 139.91C432.409 139.734 432.653 139.493 432.842 139.188C433.037 138.882 433.18 138.527 433.271 138.123C433.363 137.719 433.408 137.286 433.408 136.824V136.619C433.408 136.163 433.363 135.737 433.271 135.34C433.18 134.936 433.037 134.581 432.842 134.275C432.653 133.963 432.406 133.719 432.1 133.543C431.8 133.361 431.439 133.27 431.016 133.27C430.599 133.27 430.241 133.361 429.941 133.543C429.642 133.719 429.398 133.963 429.209 134.275C429.02 134.581 428.88 134.936 428.789 135.34C428.698 135.737 428.652 136.163 428.652 136.619ZM440.43 133.602V142H437.852V131.434H440.283L440.43 133.602ZM440.049 136.336H439.258C439.258 135.6 439.346 134.923 439.521 134.305C439.704 133.686 439.971 133.149 440.322 132.693C440.674 132.231 441.107 131.873 441.621 131.619C442.142 131.365 442.744 131.238 443.428 131.238C443.903 131.238 444.339 131.31 444.736 131.453C445.133 131.59 445.475 131.808 445.762 132.107C446.055 132.4 446.279 132.785 446.436 133.26C446.592 133.729 446.67 134.292 446.67 134.949V142H444.092V135.213C444.092 134.718 444.02 134.331 443.877 134.051C443.74 133.771 443.542 133.576 443.281 133.465C443.021 133.348 442.708 133.289 442.344 133.289C441.94 133.289 441.592 133.37 441.299 133.533C441.012 133.689 440.775 133.908 440.586 134.188C440.404 134.467 440.267 134.79 440.176 135.154C440.091 135.519 440.049 135.913 440.049 136.336ZM446.475 135.857L445.41 136.053C445.417 135.389 445.508 134.767 445.684 134.188C445.859 133.602 446.117 133.09 446.455 132.654C446.8 132.212 447.227 131.867 447.734 131.619C448.249 131.365 448.841 131.238 449.512 131.238C450.033 131.238 450.501 131.313 450.918 131.463C451.341 131.606 451.702 131.837 452.002 132.156C452.301 132.469 452.529 132.876 452.686 133.377C452.848 133.878 452.93 134.49 452.93 135.213V142H450.332V135.203C450.332 134.689 450.26 134.295 450.117 134.021C449.98 133.748 449.782 133.559 449.521 133.455C449.261 133.344 448.955 133.289 448.604 133.289C448.245 133.289 447.933 133.357 447.666 133.494C447.406 133.624 447.184 133.807 447.002 134.041C446.826 134.275 446.693 134.549 446.602 134.861C446.517 135.167 446.475 135.499 446.475 135.857Z" fill="#7786A5"/>
<path d="M228.891 599.96C228.891 600.794 228.372 601.541 227.59 601.833L213.192 607.211C211.885 607.699 210.492 606.733 210.492 605.337V582.439C210.492 581.642 210.965 580.921 211.697 580.604L226.095 574.362C227.416 573.789 228.891 574.757 228.891 576.197V599.96Z" fill="#BDCAD6"/>
<path d="M25.4804 675.791C25.4804 676.625 24.9625 677.372 24.1811 677.664L22.0483 678.462C20.7411 678.951 19.3477 677.984 19.3477 676.588V664.331C19.3477 663.537 19.8182 662.817 20.5463 662.499L22.6791 661.566C24.0004 660.988 25.4804 661.957 25.4804 663.399V675.791Z" fill="#BDCAD6"/>
<path d="M46.9446 668.709C46.9446 669.545 46.4242 670.293 45.6399 670.584L42.4843 671.754C41.178 672.238 39.7891 671.272 39.7891 669.879V656.247C39.7891 655.45 40.2618 654.73 40.9925 654.412L44.1481 653.042C45.4689 652.469 46.9446 653.437 46.9446 654.877V668.709Z" fill="#BDCAD6"/>
<path d="M70.4508 659.611C70.4508 660.446 69.9313 661.194 69.1481 661.485L64.9708 663.039C63.6641 663.525 62.2734 662.559 62.2734 661.165V646.134C62.2734 645.338 62.7454 644.618 63.4751 644.3L67.6525 642.482C68.9735 641.907 70.4508 642.875 70.4508 644.315V659.611Z" fill="#BDCAD6"/>
<path d="M99.0735 648.491C99.0735 649.326 98.5551 650.072 97.7731 650.364L91.5511 652.687C90.244 653.175 88.8516 652.209 88.8516 650.814V635.014C88.8516 634.217 89.3245 633.496 90.0554 633.179L96.2774 630.479C97.5981 629.906 99.0735 630.874 99.0735 632.314V648.491Z" fill="#BDCAD6"/>
<path d="M133.828 635.348C133.828 636.182 133.31 636.929 132.528 637.221L124.263 640.311C122.956 640.8 121.562 639.833 121.562 638.438V620.86C121.562 620.063 122.035 619.342 122.766 619.025L131.032 615.439C132.353 614.865 133.828 615.834 133.828 617.273V635.348Z" fill="#BDCAD6"/>
<path d="M175.736 620.179C175.736 621.014 175.217 621.762 174.434 622.053L164.124 625.896C162.817 626.383 161.426 625.416 161.426 624.021V603.671C161.426 602.874 161.899 602.153 162.63 601.836L172.94 597.365C174.261 596.792 175.736 597.761 175.736 599.2V620.179Z" fill="#BDCAD6"/>
<path d="M25.4804 708.98C25.4804 709.899 24.8547 710.699 23.9632 710.921L21.8304 711.451C20.5687 711.765 19.3477 710.811 19.3477 709.511V696.848C19.3477 695.973 19.9159 695.2 20.7505 694.939L22.8833 694.272C24.1713 693.869 25.4804 694.831 25.4804 696.181V708.98Z" fill="#BDCAD6"/>
<path d="M46.9446 703.924C46.9446 704.843 46.3178 705.644 45.4254 705.865L42.2698 706.646C41.0086 706.959 39.7891 706.004 39.7891 704.705V690.783C39.7891 689.908 40.3582 689.134 41.1938 688.874L44.3494 687.89C45.637 687.488 46.9446 688.45 46.9446 689.799V703.924Z" fill="#BDCAD6"/>
<path d="M70.4508 697.858C70.4508 698.777 69.8248 699.577 68.9332 699.799L64.7558 700.837C63.4942 701.151 62.2734 700.196 62.2734 698.896V683.705C62.2734 682.83 62.8424 682.056 63.6778 681.796L67.8552 680.492C69.1428 680.091 70.4508 681.053 70.4508 682.402V697.858Z" fill="#BDCAD6"/>
<path d="M99.0735 690.78C99.0735 691.699 98.4475 692.5 97.5557 692.721L91.3337 694.267C90.0722 694.58 88.8516 693.626 88.8516 692.326V675.617C88.8516 674.741 89.4211 673.967 90.2572 673.707L96.4791 671.77C97.7666 671.37 99.0735 672.332 99.0735 673.68V690.78Z" fill="#BDCAD6"/>
<path d="M133.828 681.682C133.828 682.6 133.203 683.4 132.312 683.623L124.047 685.686C122.785 686.001 121.562 685.047 121.562 683.746V665.506C121.562 664.631 122.132 663.857 122.968 663.597L131.234 661.025C132.521 660.624 133.828 661.586 133.828 662.935V681.682Z" fill="#2551AF"/>
<path d="M175.735 671.571C175.735 672.49 175.11 673.29 174.218 673.512L162.885 676.331C161.623 676.645 160.402 675.69 160.402 674.39V653.374C160.402 652.498 160.972 651.724 161.808 651.464L173.141 647.937C174.428 647.536 175.735 648.498 175.735 649.847V671.571Z" fill="#BDCAD6"/>
<path d="M228.891 658.427C228.891 659.345 228.265 660.146 227.373 660.367L212.975 663.947C211.713 664.261 210.492 663.307 210.492 662.007V638.208C210.492 637.332 211.063 636.558 211.899 636.298L226.298 631.83C227.585 631.431 228.891 632.393 228.891 633.741V658.427Z" fill="#BDCAD6"/>
<path d="M228.891 715.857C228.891 716.865 228.14 717.716 227.14 717.842L212.742 719.655C211.548 719.805 210.492 718.874 210.492 717.67V694.005C210.492 693.043 211.178 692.216 212.124 692.039L226.523 689.346C227.753 689.115 228.891 690.059 228.891 691.311V715.857Z" fill="#BDCAD6"/>
<path d="M25.4804 741.136C25.4804 742.143 24.7318 742.993 23.7329 743.12L21.6001 743.392C20.405 743.544 19.3477 742.612 19.3477 741.408V729.39C19.3477 728.429 20.0321 727.603 20.9771 727.425L23.1099 727.023C24.3413 726.791 25.4804 727.735 25.4804 728.988V741.136Z" fill="#BDCAD6"/>
<path d="M46.9446 739.11C46.9446 740.119 46.1932 740.97 45.192 741.095L42.0365 741.488C40.843 741.637 39.7891 740.706 39.7891 739.503V726.362C39.7891 725.398 40.4765 724.571 41.4241 724.395L44.5797 723.81C45.8095 723.582 46.9446 724.525 46.9446 725.776V739.11Z" fill="#BDCAD6"/>
<path d="M70.4508 736.077C70.4508 737.086 69.6999 737.936 68.6992 738.062L64.5219 738.584C63.328 738.734 62.2734 737.803 62.2734 736.6V721.302C62.2734 720.34 62.9579 719.515 63.9029 719.336L68.0803 718.549C69.3117 718.317 70.4508 719.261 70.4508 720.514V736.077Z" fill="#BDCAD6"/>
<path d="M99.0735 732.035C99.0735 733.043 98.324 733.893 97.3244 734.02L91.1024 734.806C89.9078 734.957 88.8516 734.026 88.8516 732.822V716.246C88.8516 715.285 89.5359 714.459 90.4808 714.281L96.7027 713.107C97.9342 712.875 99.0735 713.819 99.0735 715.072V732.035Z" fill="#BDCAD6"/>
<path d="M133.828 727.989C133.828 728.997 133.078 729.848 132.077 729.974L123.812 731.011C122.618 731.161 121.562 730.23 121.562 729.027V710.18C121.562 709.219 122.247 708.393 123.192 708.215L131.458 706.658C132.689 706.426 133.828 707.37 133.828 708.623V727.989Z" fill="#BDCAD6"/>
<path d="M175.735 722.934C175.735 723.942 174.984 724.793 173.983 724.918L162.65 726.335C161.457 726.484 160.402 725.553 160.402 724.35V703.104C160.402 702.141 161.088 701.316 162.033 701.138L173.366 699.01C174.597 698.779 175.735 699.724 175.735 700.976V722.934Z" fill="#BDCAD6"/>
<path d="M475.234 675.791C475.234 676.625 475.752 677.372 476.534 677.664L478.668 678.462C479.975 678.951 481.368 677.984 481.368 676.589V664.331C481.368 663.537 480.898 662.817 480.169 662.499L478.036 661.566C476.714 660.988 475.234 661.956 475.234 663.398V675.791Z" fill="#2551AF"/>
<path d="M453.77 668.709C453.77 669.545 454.29 670.293 455.074 670.584L458.23 671.754C459.536 672.238 460.925 671.272 460.925 669.879V656.247C460.925 655.45 460.452 654.73 459.722 654.412L456.566 653.042C455.245 652.469 453.77 653.437 453.77 654.877V668.709Z" fill="#2551AF"/>
<path d="M430.258 659.611C430.258 660.446 430.777 661.194 431.56 661.485L435.738 663.039C437.045 663.525 438.435 662.559 438.435 661.165V646.134C438.435 645.338 437.963 644.618 437.233 644.3L433.056 642.482C431.735 641.907 430.258 642.875 430.258 644.315V659.611Z" fill="#2551AF"/>
<path d="M401.637 648.491C401.637 649.326 402.155 650.073 402.937 650.364L409.159 652.687C410.466 653.175 411.859 652.209 411.859 650.814V635.014C411.859 634.217 411.386 633.496 410.655 633.179L404.433 630.479C403.112 629.906 401.637 630.874 401.637 632.314V648.491Z" fill="#2551AF"/>
<path d="M366.883 635.348C366.883 636.182 367.401 636.929 368.182 637.221L376.448 640.311C377.755 640.8 379.148 639.833 379.148 638.438V620.86C379.148 620.063 378.675 619.342 377.944 619.025L369.679 615.439C368.358 614.865 366.883 615.834 366.883 617.273V635.348Z" fill="#2551AF"/>
<path d="M324.973 620.179C324.973 621.014 325.492 621.762 326.275 622.053L336.586 625.896C337.893 626.383 339.284 625.416 339.284 624.022V603.671C339.284 602.874 338.811 602.153 338.08 601.836L327.768 597.365C326.448 596.792 324.973 597.761 324.973 599.2V620.179Z" fill="#2551AF"/>
<path d="M475.234 708.98C475.234 709.899 475.86 710.699 476.752 710.921L478.885 711.452C480.147 711.765 481.368 710.811 481.368 709.511V696.848C481.368 695.973 480.8 695.2 479.965 694.939L477.831 694.272C476.543 693.869 475.234 694.831 475.234 696.18V708.98Z" fill="#BDCAD6"/>
<path d="M453.77 703.924C453.77 704.843 454.396 705.644 455.289 705.865L458.444 706.646C459.706 706.959 460.925 706.004 460.925 704.705V690.783C460.925 689.908 460.356 689.134 459.52 688.874L456.365 687.89C455.077 687.488 453.77 688.45 453.77 689.799V703.924Z" fill="#BDCAD6"/>
<path d="M430.258 697.858C430.258 698.777 430.884 699.577 431.775 699.799L435.953 700.837C437.214 701.151 438.435 700.196 438.435 698.896V683.705C438.435 682.83 437.866 682.056 437.031 681.796L432.853 680.492C431.566 680.091 430.258 681.053 430.258 682.402V697.858Z" fill="#BDCAD6"/>
<path d="M401.637 690.781C401.637 691.699 402.263 692.5 403.155 692.722L409.377 694.267C410.638 694.581 411.859 693.626 411.859 692.326V675.617C411.859 674.741 411.289 673.968 410.453 673.707L404.231 671.771C402.944 671.37 401.637 672.332 401.637 673.68V690.781Z" fill="#BDCAD6"/>
<path d="M366.883 681.682C366.883 682.6 367.508 683.4 368.398 683.623L376.664 685.686C377.926 686.001 379.148 685.047 379.148 683.746V665.506C379.148 664.631 378.579 663.857 377.743 663.597L369.477 661.025C368.19 660.624 366.883 661.586 366.883 662.935V681.682Z" fill="#2551AF"/>
<path d="M324.973 671.571C324.973 672.49 325.599 673.29 326.49 673.512L337.823 676.331C339.085 676.645 340.306 675.69 340.306 674.39V653.374C340.306 652.498 339.736 651.724 338.9 651.464L327.567 647.937C326.28 647.536 324.973 648.498 324.973 649.847V671.571Z" fill="#2551AF"/>
<path d="M271.82 658.427C271.82 659.345 272.446 660.146 273.338 660.367L287.737 663.948C288.999 664.261 290.22 663.307 290.22 662.007V638.208C290.22 637.332 289.649 636.558 288.812 636.298L274.413 631.83C273.126 631.431 271.82 632.393 271.82 633.741V658.427Z" fill="#2551AF"/>
<path d="M271.82 715.857C271.82 716.865 272.57 717.716 273.57 717.842L287.97 719.655C289.164 719.805 290.22 718.874 290.22 717.67V694.005C290.22 693.043 289.534 692.216 288.587 692.039L274.188 689.345C272.958 689.115 271.82 690.059 271.82 691.311V715.857Z" fill="#BDCAD6"/>
<path d="M475.234 741.136C475.234 742.143 475.983 742.993 476.982 743.12L479.116 743.392C480.311 743.544 481.368 742.612 481.368 741.408V729.391C481.368 728.429 480.684 727.603 479.739 727.425L477.605 727.023C476.374 726.791 475.234 727.735 475.234 728.988V741.136Z" fill="#BDCAD6"/>
<path d="M453.77 739.11C453.77 740.119 454.521 740.97 455.522 741.095L458.678 741.488C459.871 741.637 460.925 740.706 460.925 739.503V726.362C460.925 725.398 460.238 724.571 459.29 724.395L456.134 723.81C454.905 723.582 453.77 724.525 453.77 725.776V739.11Z" fill="#BDCAD6"/>
<path d="M430.258 736.077C430.258 737.086 431.009 737.936 432.009 738.062L436.187 738.585C437.381 738.734 438.435 737.803 438.435 736.6V721.302C438.435 720.34 437.751 719.515 436.806 719.336L432.628 718.549C431.397 718.317 430.258 719.261 430.258 720.514V736.077Z" fill="#BDCAD6"/>
<path d="M401.637 732.035C401.637 733.043 402.386 733.893 403.386 734.019L409.608 734.806C410.803 734.957 411.859 734.026 411.859 732.822V716.246C411.859 715.284 411.174 714.459 410.23 714.281L404.008 713.107C402.776 712.874 401.637 713.819 401.637 715.072V732.035Z" fill="#BDCAD6"/>
<path d="M366.883 727.989C366.883 728.997 367.633 729.848 368.634 729.974L376.899 731.011C378.093 731.161 379.148 730.23 379.148 729.027V710.18C379.148 709.219 378.464 708.393 377.519 708.215L369.253 706.658C368.022 706.426 366.883 707.37 366.883 708.623V727.989Z" fill="#BDCAD6"/>
<path d="M324.973 722.934C324.973 723.942 325.724 724.793 326.725 724.918L338.058 726.335C339.251 726.484 340.306 725.553 340.306 724.35V703.104C340.306 702.141 339.62 701.316 338.675 701.138L327.342 699.01C326.111 698.779 324.973 699.724 324.973 700.976V722.934Z" fill="#BDCAD6"/>
<path d="M289.199 605.544C289.199 606.939 287.807 607.906 286.5 607.418L272.102 602.047C271.319 601.755 270.801 601.008 270.801 600.173V576.085C270.801 574.645 272.276 573.677 273.597 574.25L287.995 580.495C288.726 580.812 289.199 581.533 289.199 582.33V605.544Z" fill="#2551AF"/>
<path d="M495.465 636.95C495.529 636.983 495.589 637.025 495.643 637.073V637.073C496.368 637.727 495.592 638.884 494.712 638.462L254.327 523.077C251.592 521.764 248.408 521.764 245.673 523.077L4.52332 638.829C3.25035 639.44 1.98068 637.988 2.7564 636.808V636.808C2.88891 636.606 3.07149 636.443 3.28627 636.333L245.285 512.601C248.155 511.134 251.557 511.14 254.421 512.618L495.465 636.95Z" fill="url(#paint2_linear_1_763)"/>
<path opacity="0.4" d="M336.623 63.5849C343.483 63.5849 349.049 58.0235 349.049 51.1631C349.049 44.3027 343.483 38.7413 336.623 38.7413" stroke="#7786A5" stroke-width="6.66395" stroke-linecap="round" stroke-linejoin="round"/>
<path d="M342.345 77.0837C344.394 77.225 346.431 77.5155 348.436 77.9668C351.223 78.5123 354.575 79.6544 355.768 82.1545C356.529 83.7558 356.529 85.62 355.768 87.2252C354.579 89.7253 351.223 90.8635 348.436 91.4365" stroke="#7786A5" stroke-width="6.66395" stroke-linecap="round" stroke-linejoin="round"/>
<path opacity="0.4" d="M360.717 63.5849C367.577 63.5849 373.142 58.0235 373.142 51.1631C373.142 44.3027 367.577 38.7413 360.717 38.7413" stroke="#7786A5" stroke-width="6.66395" stroke-linecap="round" stroke-linejoin="round"/>
<path d="M366.439 77.0837C368.487 77.225 370.524 77.5155 372.53 77.9668C375.316 78.5123 378.668 79.6544 379.861 82.1545C380.623 83.7558 380.623 85.62 379.861 87.2252C378.672 89.7253 375.316 90.8635 372.53 91.4365" stroke="#7786A5" stroke-width="6.66395" stroke-linecap="round" stroke-linejoin="round"/>
<path opacity="0.4" d="M384.81 63.5849C391.67 63.5849 397.235 58.0235 397.235 51.1631C397.235 44.3027 391.67 38.7413 384.81 38.7413" stroke="#7786A5" stroke-width="6.66395" stroke-linecap="round" stroke-linejoin="round"/>
<path d="M390.532 77.0837C392.581 77.225 394.618 77.5155 396.623 77.9668C399.41 78.5123 402.761 79.6544 403.955 82.1545C404.716 83.7558 404.716 85.62 403.955 87.2252C402.765 89.7253 399.41 90.8635 396.623 91.4365" stroke="#7786A5" stroke-width="6.66395" stroke-linecap="round" stroke-linejoin="round"/>
<path fill-rule="evenodd" clip-rule="evenodd" d="M305.778 75.05C319.679 75.05 331.555 77.1537 331.555 85.5722C331.555 93.9869 319.757 96.169 305.778 96.169C291.872 96.169 280 94.0654 280 85.6468C280 77.2283 291.798 75.05 305.778 75.05Z" stroke="#7786A5" stroke-width="6.66395" stroke-linecap="round" stroke-linejoin="round"/>
<path opacity="0.4" fill-rule="evenodd" clip-rule="evenodd" d="M305.769 63.0423C296.601 63.0423 289.25 55.6913 289.25 46.5192C289.25 37.351 296.601 30 305.769 30C314.937 30 322.288 37.351 322.288 46.5192C322.288 55.6913 314.937 63.0423 305.769 63.0423Z" stroke="#7786A5" stroke-width="6.66395" stroke-linecap="round" stroke-linejoin="round"/>
<path d="M422.143 69.5131V81.797" stroke="#7786A5" stroke-width="4.76791" stroke-linecap="round" stroke-linejoin="round"/>
<path d="M428.415 75.6545H415.886" stroke="#7786A5" stroke-width="4.76791" stroke-linecap="round" stroke-linejoin="round"/>
<rect width="89" height="26" rx="3.47222" transform="matrix(-1 0 0 1 119 412)" fill="#2551AF"/>
<path d="M52.5449 426.982H54.6642C54.5964 427.79 54.3703 428.511 53.986 429.144C53.6017 429.771 53.062 430.265 52.3669 430.627C51.6718 430.989 50.8269 431.17 49.8322 431.17C49.0693 431.17 48.3827 431.034 47.7723 430.763C47.162 430.486 46.6392 430.096 46.204 429.593C45.7689 429.084 45.4355 428.471 45.2037 427.753C44.9777 427.036 44.8647 426.233 44.8647 425.346V424.32C44.8647 423.433 44.9805 422.63 45.2122 421.913C45.4496 421.195 45.7887 420.582 46.2295 420.073C46.6703 419.559 47.1987 419.166 47.8147 418.895C48.4364 418.623 49.1343 418.488 49.9085 418.488C50.8919 418.488 51.7226 418.669 52.4008 419.03C53.079 419.392 53.6046 419.892 53.9776 420.531C54.3562 421.169 54.5879 421.901 54.6727 422.726H52.5534C52.4969 422.195 52.3726 421.74 52.1804 421.362C51.9939 420.983 51.717 420.695 51.3496 420.497C50.9823 420.293 50.5019 420.192 49.9085 420.192C49.4225 420.192 48.9987 420.282 48.637 420.463C48.2753 420.644 47.9729 420.909 47.7299 421.26C47.4869 421.61 47.3032 422.043 47.1789 422.557C47.0602 423.065 47.0009 423.648 47.0009 424.303V425.346C47.0009 425.967 47.0546 426.533 47.162 427.041C47.275 427.544 47.4445 427.976 47.6706 428.338C47.9023 428.7 48.1962 428.98 48.5522 429.177C48.9082 429.375 49.3349 429.474 49.8322 429.474C50.4369 429.474 50.9258 429.378 51.2988 429.186C51.6774 428.994 51.9628 428.714 52.155 428.347C52.3528 427.974 52.4828 427.519 52.5449 426.982ZM58.5976 421.828V431H56.5546V421.828H58.5976ZM64.5824 421.828L60.4541 427.346H58.1229L57.8516 425.498H59.5555L62.0308 421.828H64.5824ZM62.1919 431L59.4283 426.999L61.039 425.837L64.8791 431H62.1919ZM68.1004 428.016L71.7032 421.828H73.7462V431H71.7032V424.803L68.1004 431H66.0574V421.828H68.1004V428.016ZM77.5693 421.828H79.6123L79.5106 425.058C79.4823 425.996 79.375 426.801 79.1885 427.474C79.002 428.146 78.759 428.714 78.4594 429.177C78.1599 429.635 77.8208 430.011 77.4422 430.305C77.0692 430.599 76.6764 430.83 76.2639 431H75.662V429.389L75.9502 429.372C76.1932 429.112 76.4023 428.852 76.5775 428.593C76.7584 428.327 76.9109 428.036 77.0353 427.719C77.1596 427.397 77.2557 427.021 77.3235 426.592C77.397 426.162 77.445 425.651 77.4676 425.058L77.5693 421.828ZM78.1119 421.828H83.9272V431H81.8927V423.557H78.1119V421.828ZM75.1957 429.372H85.1818V433.73H83.1388V431H77.2642V433.73H75.1873L75.1957 429.372ZM88.793 421.828V431H86.75V421.828H88.793ZM94.7779 421.828L90.6495 427.346H88.3183L88.047 425.498H89.7509L92.2263 421.828H94.7779ZM92.3873 431L89.6238 426.999L91.2344 425.837L95.0746 431H92.3873ZM101.356 429.16V424.786C101.356 424.459 101.297 424.176 101.178 423.939C101.059 423.701 100.879 423.518 100.636 423.388C100.398 423.258 100.099 423.193 99.737 423.193C99.4035 423.193 99.1153 423.249 98.8723 423.362C98.6293 423.475 98.44 423.628 98.3043 423.82C98.1687 424.012 98.1009 424.23 98.1009 424.473H96.0664C96.0664 424.111 96.154 423.761 96.3292 423.421C96.5044 423.082 96.7587 422.78 97.0921 422.514C97.4255 422.249 97.824 422.04 98.2874 421.887C98.7508 421.735 99.2707 421.658 99.8472 421.658C100.537 421.658 101.147 421.774 101.678 422.006C102.215 422.237 102.636 422.588 102.941 423.057C103.252 423.52 103.408 424.102 103.408 424.803V428.881C103.408 429.299 103.436 429.675 103.492 430.008C103.554 430.336 103.642 430.621 103.755 430.864V431H101.661C101.565 430.78 101.489 430.5 101.432 430.161C101.382 429.816 101.356 429.483 101.356 429.16ZM101.653 425.422L101.67 426.685H100.203C99.8246 426.685 99.4911 426.722 99.2029 426.795C98.9147 426.863 98.6745 426.965 98.4824 427.101C98.2902 427.236 98.1461 427.4 98.05 427.592C97.9539 427.784 97.9059 428.002 97.9059 428.245C97.9059 428.488 97.9624 428.711 98.0755 428.915C98.1885 429.112 98.3524 429.268 98.5671 429.381C98.7875 429.494 99.0531 429.55 99.364 429.55C99.7822 429.55 100.147 429.466 100.458 429.296C100.774 429.121 101.023 428.909 101.204 428.66C101.384 428.406 101.48 428.166 101.492 427.94L102.153 428.847C102.085 429.079 101.969 429.327 101.805 429.593C101.641 429.858 101.427 430.113 101.161 430.356C100.901 430.593 100.587 430.788 100.22 430.941C99.8585 431.093 99.4403 431.17 98.9655 431.17C98.3665 431.17 97.8324 431.051 97.3634 430.814C96.8943 430.57 96.527 430.246 96.2614 429.839C95.9957 429.426 95.8629 428.96 95.8629 428.44C95.8629 427.954 95.9533 427.524 96.1342 427.151C96.3207 426.773 96.592 426.456 96.948 426.202C97.3097 425.948 97.7505 425.755 98.2704 425.626C98.7904 425.49 99.3838 425.422 100.051 425.422H101.653Z" fill="#F1F7FF"/>
<path d="M72.1875 491.562V501.406C72.1875 505.677 71.7318 509.362 70.8203 512.461C69.9089 515.534 68.5938 518.06 66.875 520.039C65.1823 521.992 63.1641 523.438 60.8203 524.375C58.4766 525.312 55.8724 525.781 53.0078 525.781C50.7161 525.781 48.5807 525.495 46.6016 524.922C44.6224 524.323 42.8385 523.398 41.25 522.148C39.6875 520.898 38.3333 519.323 37.1875 517.422C36.0677 515.495 35.2083 513.203 34.6094 510.547C34.0104 507.891 33.7109 504.844 33.7109 501.406V491.562C33.7109 487.292 34.1667 483.633 35.0781 480.586C36.0156 477.513 37.3307 475 39.0234 473.047C40.7422 471.094 42.7734 469.661 45.1172 468.75C47.4609 467.812 50.0651 467.344 52.9297 467.344C55.2214 467.344 57.3438 467.643 59.2969 468.242C61.276 468.815 63.0599 469.714 64.6484 470.938C66.237 472.161 67.5911 473.737 68.7109 475.664C69.8307 477.565 70.6901 479.844 71.2891 482.5C71.888 485.13 72.1875 488.151 72.1875 491.562ZM60.8984 502.891V490.039C60.8984 487.982 60.7812 486.185 60.5469 484.648C60.3385 483.112 60.013 481.81 59.5703 480.742C59.1276 479.648 58.5807 478.763 57.9297 478.086C57.2786 477.409 56.5365 476.914 55.7031 476.602C54.8698 476.289 53.9453 476.133 52.9297 476.133C51.6536 476.133 50.5208 476.38 49.5312 476.875C48.5677 477.37 47.7474 478.164 47.0703 479.258C46.3932 480.326 45.8724 481.758 45.5078 483.555C45.1693 485.326 45 487.487 45 490.039V502.891C45 504.948 45.1042 506.758 45.3125 508.32C45.5469 509.883 45.8854 511.224 46.3281 512.344C46.7969 513.438 47.3438 514.336 47.9688 515.039C48.6198 515.716 49.362 516.211 50.1953 516.523C51.0547 516.836 51.9922 516.992 53.0078 516.992C54.2578 516.992 55.3646 516.745 56.3281 516.25C57.3177 515.729 58.151 514.922 58.8281 513.828C59.5312 512.708 60.0521 511.25 60.3906 509.453C60.7292 507.656 60.8984 505.469 60.8984 502.891ZM79.6875 482.07V479.062C79.6875 476.901 80.1562 474.935 81.0938 473.164C82.0312 471.393 83.4115 469.974 85.2344 468.906C87.0573 467.839 89.2969 467.305 91.9531 467.305C94.6875 467.305 96.9661 467.839 98.7891 468.906C100.638 469.974 102.018 471.393 102.93 473.164C103.867 474.935 104.336 476.901 104.336 479.062V482.07C104.336 484.18 103.867 486.12 102.93 487.891C102.018 489.661 100.651 491.081 98.8281 492.148C97.0052 493.216 94.7526 493.75 92.0703 493.75C89.362 493.75 87.0833 493.216 85.2344 492.148C83.4115 491.081 82.0312 489.661 81.0938 487.891C80.1562 486.12 79.6875 484.18 79.6875 482.07ZM87.1484 479.062V482.07C87.1484 482.982 87.3177 483.854 87.6562 484.688C88.0208 485.495 88.5677 486.159 89.2969 486.68C90.0521 487.174 90.9635 487.422 92.0312 487.422C93.151 487.422 94.0625 487.174 94.7656 486.68C95.4688 486.159 95.9896 485.495 96.3281 484.688C96.6667 483.854 96.8359 482.982 96.8359 482.07V479.062C96.8359 478.099 96.6536 477.214 96.2891 476.406C95.9505 475.573 95.4167 474.909 94.6875 474.414C93.9844 473.893 93.0729 473.633 91.9531 473.633C90.9115 473.633 90.026 473.893 89.2969 474.414C88.5677 474.909 88.0208 475.573 87.6562 476.406C87.3177 477.214 87.1484 478.099 87.1484 479.062ZM106.875 514.062V511.055C106.875 508.919 107.344 506.966 108.281 505.195C109.245 503.424 110.638 502.005 112.461 500.938C114.31 499.87 116.576 499.336 119.258 499.336C121.966 499.336 124.232 499.87 126.055 500.938C127.878 502.005 129.258 503.424 130.195 505.195C131.133 506.966 131.602 508.919 131.602 511.055V514.062C131.602 516.198 131.133 518.151 130.195 519.922C129.284 521.693 127.917 523.112 126.094 524.18C124.271 525.247 122.018 525.781 119.336 525.781C116.628 525.781 114.349 525.247 112.5 524.18C110.651 523.112 109.245 521.693 108.281 519.922C107.344 518.151 106.875 516.198 106.875 514.062ZM114.375 511.055V514.062C114.375 515 114.583 515.885 115 516.719C115.417 517.552 115.99 518.216 116.719 518.711C117.474 519.206 118.346 519.453 119.336 519.453C120.586 519.453 121.562 519.206 122.266 518.711C122.969 518.216 123.451 517.552 123.711 516.719C123.997 515.885 124.141 515 124.141 514.062V511.055C124.141 510.117 123.958 509.245 123.594 508.438C123.229 507.604 122.682 506.94 121.953 506.445C121.25 505.924 120.352 505.664 119.258 505.664C118.164 505.664 117.253 505.924 116.523 506.445C115.82 506.94 115.286 507.604 114.922 508.438C114.557 509.245 114.375 510.117 114.375 511.055ZM122.031 476.25L94.2578 520.703L88.7891 517.812L116.562 473.359L122.031 476.25Z" fill="#2551AF"/>
<path d="M42.7734 369.781V384H40.0879V371.9H34.0723V384H31.3867V369.781H42.7734ZM44.8828 378.824V378.619C44.8828 377.844 44.9935 377.132 45.2148 376.48C45.4362 375.823 45.7585 375.253 46.1816 374.771C46.6048 374.29 47.1224 373.915 47.7344 373.648C48.3464 373.375 49.043 373.238 49.8242 373.238C50.6185 373.238 51.3216 373.375 51.9336 373.648C52.5521 373.915 53.0729 374.29 53.4961 374.771C53.9193 375.253 54.2415 375.823 54.4629 376.48C54.6842 377.132 54.7949 377.844 54.7949 378.619V378.824C54.7949 379.592 54.6842 380.305 54.4629 380.963C54.2415 381.614 53.9193 382.184 53.4961 382.672C53.0729 383.154 52.5553 383.528 51.9434 383.795C51.3314 384.062 50.6315 384.195 49.8438 384.195C49.0625 384.195 48.3626 384.062 47.7441 383.795C47.1257 383.528 46.6048 383.154 46.1816 382.672C45.7585 382.184 45.4362 381.614 45.2148 380.963C44.9935 380.305 44.8828 379.592 44.8828 378.824ZM47.4609 378.619V378.824C47.4609 379.286 47.5065 379.719 47.5977 380.123C47.6888 380.527 47.8288 380.882 48.0176 381.188C48.2064 381.493 48.4505 381.734 48.75 381.91C49.056 382.079 49.4206 382.164 49.8438 382.164C50.2604 382.164 50.6185 382.079 50.918 381.91C51.2174 381.734 51.4616 381.493 51.6504 381.188C51.8457 380.882 51.9889 380.527 52.0801 380.123C52.1712 379.719 52.2168 379.286 52.2168 378.824V378.619C52.2168 378.163 52.1712 377.737 52.0801 377.34C51.9889 376.936 51.8457 376.581 51.6504 376.275C51.4616 375.963 51.2142 375.719 50.9082 375.543C50.6087 375.361 50.2474 375.27 49.8242 375.27C49.4076 375.27 49.0495 375.361 48.75 375.543C48.4505 375.719 48.2064 375.963 48.0176 376.275C47.8288 376.581 47.6888 376.936 47.5977 377.34C47.5065 377.737 47.4609 378.163 47.4609 378.619ZM59.4238 373.434V384H56.8457V373.434H59.4238ZM66.3086 373.434L61.6504 379.918H58.9062L58.584 377.555H60.4883L63.0566 373.434H66.3086ZM63.2129 384L60.3223 379.469L62.4707 378.121L66.6406 384H63.2129ZM70.918 382.828L73.75 373.434H76.5137L72.2754 385.602C72.1777 385.862 72.0508 386.145 71.8945 386.451C71.7448 386.757 71.543 387.047 71.2891 387.32C71.0352 387.6 70.7161 387.828 70.332 388.004C69.9544 388.18 69.4954 388.268 68.9551 388.268C68.7207 388.268 68.5124 388.251 68.3301 388.219C68.1478 388.186 67.9557 388.144 67.7539 388.092V386.158C67.819 386.165 67.8939 386.168 67.9785 386.168C68.0697 386.174 68.1478 386.178 68.2129 386.178C68.5905 386.178 68.903 386.132 69.1504 386.041C69.3978 385.956 69.5964 385.816 69.7461 385.621C69.9023 385.432 70.0326 385.185 70.1367 384.879L70.918 382.828ZM69.5215 373.434L71.9141 381.217L72.334 383.941L70.5566 384.264L66.7383 373.434H69.5215ZM84.8535 373.434V375.475H79.6875V373.434H84.8535ZM80.3711 373.434V384H77.7832V373.434H80.3711ZM86.8066 373.434V384H84.209V373.434H86.8066ZM94.9707 381.754V376.881C94.9707 376.523 94.9089 376.214 94.7852 375.953C94.6615 375.693 94.4727 375.491 94.2188 375.348C93.9648 375.204 93.6426 375.133 93.252 375.133C92.9069 375.133 92.6042 375.191 92.3438 375.309C92.0898 375.426 91.8945 375.592 91.7578 375.807C91.6211 376.015 91.5527 376.256 91.5527 376.529H88.9648C88.9648 376.093 89.069 375.68 89.2773 375.289C89.4857 374.892 89.7819 374.54 90.166 374.234C90.5566 373.922 91.0221 373.678 91.5625 373.502C92.1094 373.326 92.7214 373.238 93.3984 373.238C94.1992 373.238 94.9121 373.375 95.5371 373.648C96.1686 373.915 96.6634 374.319 97.0215 374.859C97.3861 375.4 97.5684 376.08 97.5684 376.9V381.51C97.5684 382.037 97.6009 382.49 97.666 382.867C97.7376 383.238 97.8418 383.561 97.9785 383.834V384H95.3516C95.2279 383.733 95.1335 383.395 95.0684 382.984C95.0033 382.568 94.9707 382.158 94.9707 381.754ZM95.332 377.564L95.3516 379.098H93.7207C93.3171 379.098 92.9622 379.14 92.6562 379.225C92.3503 379.303 92.0996 379.42 91.9043 379.576C91.709 379.726 91.5625 379.908 91.4648 380.123C91.3672 380.331 91.3184 380.569 91.3184 380.836C91.3184 381.096 91.377 381.331 91.4941 381.539C91.6178 381.747 91.7936 381.913 92.0215 382.037C92.2559 382.154 92.5293 382.213 92.8418 382.213C93.2975 382.213 93.6947 382.122 94.0332 381.939C94.3717 381.751 94.6354 381.523 94.8242 381.256C95.013 380.989 95.1139 380.735 95.127 380.494L95.8691 381.607C95.778 381.874 95.6413 382.158 95.459 382.457C95.2767 382.757 95.0423 383.036 94.7559 383.297C94.4694 383.557 94.1243 383.772 93.7207 383.941C93.3171 384.111 92.8483 384.195 92.3145 384.195C91.6309 384.195 91.0189 384.059 90.4785 383.785C89.9382 383.512 89.5117 383.137 89.1992 382.662C88.8867 382.187 88.7305 381.646 88.7305 381.041C88.7305 380.481 88.8346 379.986 89.043 379.557C89.2513 379.127 89.5605 378.766 89.9707 378.473C90.3809 378.173 90.8887 377.949 91.4941 377.799C92.1061 377.643 92.806 377.564 93.5938 377.564H95.332ZM104.863 373.434V384H102.275V373.434H104.863ZM108.301 373.434V375.445H98.8965V373.434H108.301ZM111.65 376.686H114.736C115.674 376.686 116.471 376.842 117.129 377.154C117.793 377.46 118.298 377.89 118.643 378.443C118.994 378.99 119.17 379.625 119.17 380.348C119.17 380.868 119.069 381.354 118.867 381.803C118.672 382.245 118.385 382.633 118.008 382.965C117.63 383.29 117.165 383.544 116.611 383.727C116.064 383.909 115.439 384 114.736 384H109.99V373.434H112.578V381.979H114.736C115.186 381.979 115.544 381.904 115.811 381.754C116.084 381.598 116.279 381.399 116.396 381.158C116.52 380.911 116.582 380.647 116.582 380.367C116.582 380.081 116.52 379.814 116.396 379.566C116.279 379.312 116.084 379.107 115.811 378.951C115.544 378.795 115.186 378.717 114.736 378.717H111.65V376.686ZM125.43 378.824V378.619C125.43 377.844 125.54 377.132 125.762 376.48C125.983 375.823 126.305 375.253 126.729 374.771C127.152 374.29 127.669 373.915 128.281 373.648C128.893 373.375 129.59 373.238 130.371 373.238C131.165 373.238 131.868 373.375 132.48 373.648C133.099 373.915 133.62 374.29 134.043 374.771C134.466 375.253 134.788 375.823 135.01 376.48C135.231 377.132 135.342 377.844 135.342 378.619V378.824C135.342 379.592 135.231 380.305 135.01 380.963C134.788 381.614 134.466 382.184 134.043 382.672C133.62 383.154 133.102 383.528 132.49 383.795C131.878 384.062 131.178 384.195 130.391 384.195C129.609 384.195 128.91 384.062 128.291 383.795C127.673 383.528 127.152 383.154 126.729 382.672C126.305 382.184 125.983 381.614 125.762 380.963C125.54 380.305 125.43 379.592 125.43 378.824ZM128.008 378.619V378.824C128.008 379.286 128.053 379.719 128.145 380.123C128.236 380.527 128.376 380.882 128.564 381.188C128.753 381.493 128.997 381.734 129.297 381.91C129.603 382.079 129.967 382.164 130.391 382.164C130.807 382.164 131.165 382.079 131.465 381.91C131.764 381.734 132.008 381.493 132.197 381.188C132.393 380.882 132.536 380.527 132.627 380.123C132.718 379.719 132.764 379.286 132.764 378.824V378.619C132.764 378.163 132.718 377.737 132.627 377.34C132.536 376.936 132.393 376.581 132.197 376.275C132.008 375.963 131.761 375.719 131.455 375.543C131.156 375.361 130.794 375.27 130.371 375.27C129.954 375.27 129.596 375.361 129.297 375.543C128.997 375.719 128.753 375.963 128.564 376.275C128.376 376.581 128.236 376.936 128.145 377.34C128.053 377.737 128.008 378.163 128.008 378.619ZM138.418 373.434H140.996L140.898 377.066C140.866 378.167 140.736 379.117 140.508 379.918C140.286 380.712 139.99 381.38 139.619 381.92C139.255 382.46 138.838 382.896 138.369 383.229C137.907 383.561 137.422 383.818 136.914 384H136.299L136.289 381.988L136.592 381.969C136.898 381.643 137.155 381.324 137.363 381.012C137.578 380.693 137.751 380.351 137.881 379.986C138.011 379.622 138.109 379.205 138.174 378.736C138.245 378.261 138.291 377.704 138.311 377.066L138.418 373.434ZM139.111 373.434H145.957V384H143.379V375.553H139.111V373.434ZM135.713 381.969H147.432V387.164H144.854V384H138.34V387.164H135.703L135.713 381.969ZM156.133 377.77V379.791H150.713V377.77H156.133ZM151.523 373.434V384H148.936V373.434H151.523ZM157.939 373.434V384H155.342V373.434H157.939ZM159.824 378.824V378.619C159.824 377.844 159.935 377.132 160.156 376.48C160.378 375.823 160.7 375.253 161.123 374.771C161.546 374.29 162.064 373.915 162.676 373.648C163.288 373.375 163.984 373.238 164.766 373.238C165.56 373.238 166.263 373.375 166.875 373.648C167.493 373.915 168.014 374.29 168.438 374.771C168.861 375.253 169.183 375.823 169.404 376.48C169.626 377.132 169.736 377.844 169.736 378.619V378.824C169.736 379.592 169.626 380.305 169.404 380.963C169.183 381.614 168.861 382.184 168.438 382.672C168.014 383.154 167.497 383.528 166.885 383.795C166.273 384.062 165.573 384.195 164.785 384.195C164.004 384.195 163.304 384.062 162.686 383.795C162.067 383.528 161.546 383.154 161.123 382.672C160.7 382.184 160.378 381.614 160.156 380.963C159.935 380.305 159.824 379.592 159.824 378.824ZM162.402 378.619V378.824C162.402 379.286 162.448 379.719 162.539 380.123C162.63 380.527 162.77 380.882 162.959 381.188C163.148 381.493 163.392 381.734 163.691 381.91C163.997 382.079 164.362 382.164 164.785 382.164C165.202 382.164 165.56 382.079 165.859 381.91C166.159 381.734 166.403 381.493 166.592 381.188C166.787 380.882 166.93 380.527 167.021 380.123C167.113 379.719 167.158 379.286 167.158 378.824V378.619C167.158 378.163 167.113 377.737 167.021 377.34C166.93 376.936 166.787 376.581 166.592 376.275C166.403 375.963 166.156 375.719 165.85 375.543C165.55 375.361 165.189 375.27 164.766 375.27C164.349 375.27 163.991 375.361 163.691 375.543C163.392 375.719 163.148 375.963 162.959 376.275C162.77 376.581 162.63 376.936 162.539 377.34C162.448 377.737 162.402 378.163 162.402 378.619ZM177.949 380.953L180.918 373.434H183.076L178.828 384H177.08L172.842 373.434H175.01L177.949 380.953ZM174.375 373.434V384H171.787V373.434H174.375ZM181.572 384V373.434H184.16V384H181.572ZM189.824 382.828L192.656 373.434H195.42L191.182 385.602C191.084 385.862 190.957 386.145 190.801 386.451C190.651 386.757 190.449 387.047 190.195 387.32C189.941 387.6 189.622 387.828 189.238 388.004C188.861 388.18 188.402 388.268 187.861 388.268C187.627 388.268 187.419 388.251 187.236 388.219C187.054 388.186 186.862 388.144 186.66 388.092V386.158C186.725 386.165 186.8 386.168 186.885 386.168C186.976 386.174 187.054 386.178 187.119 386.178C187.497 386.178 187.809 386.132 188.057 386.041C188.304 385.956 188.503 385.816 188.652 385.621C188.809 385.432 188.939 385.185 189.043 384.879L189.824 382.828ZM188.428 373.434L190.82 381.217L191.24 383.941L189.463 384.264L185.645 373.434H188.428Z" fill="#7786A5"/>
<path fill-rule="evenodd" clip-rule="evenodd" d="M57.2701 319.658C71.9764 319.658 84.5403 321.884 84.5403 330.79C84.5403 339.692 72.0594 342 57.2701 342C42.5597 342 30 339.775 30 330.869C30 321.963 42.4808 319.658 57.2701 319.658Z" stroke="#7786A5" stroke-width="6.66395" stroke-linecap="round" stroke-linejoin="round"/>
<path opacity="0.4" fill-rule="evenodd" clip-rule="evenodd" d="M57.2613 306.955C47.5623 306.955 39.7856 299.179 39.7856 289.476C39.7856 279.777 47.5623 272 57.2613 272C66.9603 272 74.7369 279.777 74.7369 289.476C74.7369 299.179 66.9603 306.955 57.2613 306.955Z" stroke="#7786A5" stroke-width="6.66395" stroke-linecap="round" stroke-linejoin="round"/>
<defs>
<linearGradient id="paint0_linear_1_763" x1="249.48" y1="619.043" x2="249.48" y2="242" gradientUnits="userSpaceOnUse">
<stop stop-color="#F1F7FF"/>
<stop offset="1" stop-color="white"/>
</linearGradient>
<linearGradient id="paint1_linear_1_763" x1="369" y1="779" x2="375.046" y2="0.000339686" gradientUnits="userSpaceOnUse">
<stop stop-color="#D3E0FD"/>
<stop offset="1" stop-color="white"/>
</linearGradient>
<linearGradient id="paint2_linear_1_763" x1="256.41" y1="545.5" x2="8.42948" y2="727.199" gradientUnits="userSpaceOnUse">
<stop stop-color="#A7B8DD"/>
<stop offset="1" stop-color="#EEF4FF"/>
</linearGradient>
</defs>
</svg>
