<svg width="155" height="74" viewBox="0 0 155 74" fill="none" xmlns="http://www.w3.org/2000/svg">
<path opacity="0.4" d="M60.623 37.5849C67.4835 37.5849 73.0487 32.0235 73.0487 25.1631C73.0487 18.3027 67.4835 12.7413 60.623 12.7413" stroke="#7786A5" stroke-width="6.66395" stroke-linecap="round" stroke-linejoin="round"/>
<path d="M66.3452 51.0837C68.3939 51.225 70.4309 51.5155 72.4364 51.9668C75.2229 52.5123 78.5747 53.6544 79.7678 56.1545C80.5292 57.7558 80.5292 59.62 79.7678 61.2252C78.5786 63.7253 75.2229 64.8635 72.4364 65.4365" stroke="#7786A5" stroke-width="6.66395" stroke-linecap="round" stroke-linejoin="round"/>
<path opacity="0.4" d="M84.7166 37.5849C91.577 37.5849 97.1422 32.0235 97.1422 25.1631C97.1422 18.3027 91.577 12.7413 84.7166 12.7413" stroke="#7786A5" stroke-width="6.66395" stroke-linecap="round" stroke-linejoin="round"/>
<path d="M90.4387 51.0837C92.4874 51.225 94.5244 51.5155 96.5299 51.9668C99.3165 52.5123 102.668 53.6544 103.861 56.1545C104.623 57.7558 104.623 59.62 103.861 61.2252C102.672 63.7253 99.3165 64.8635 96.5299 65.4365" stroke="#7786A5" stroke-width="6.66395" stroke-linecap="round" stroke-linejoin="round"/>
<path opacity="0.4" d="M108.81 37.5849C115.67 37.5849 121.235 32.0235 121.235 25.1631C121.235 18.3027 115.67 12.7413 108.81 12.7413" stroke="#7786A5" stroke-width="6.66395" stroke-linecap="round" stroke-linejoin="round"/>
<path d="M114.532 51.0837C116.581 51.225 118.618 51.5155 120.623 51.9668C123.41 52.5123 126.761 53.6544 127.955 56.1545C128.716 57.7558 128.716 59.62 127.955 61.2252C126.765 63.7253 123.41 64.8635 120.623 65.4365" stroke="#7786A5" stroke-width="6.66395" stroke-linecap="round" stroke-linejoin="round"/>
<path fill-rule="evenodd" clip-rule="evenodd" d="M29.7776 49.05C43.679 49.05 55.5552 51.1537 55.5552 59.5722C55.5552 67.9869 43.7575 70.169 29.7776 70.169C15.8723 70.169 4 68.0654 4 59.6468C4 51.2283 15.7977 49.05 29.7776 49.05Z" stroke="#7786A5" stroke-width="6.66395" stroke-linecap="round" stroke-linejoin="round"/>
<path opacity="0.4" fill-rule="evenodd" clip-rule="evenodd" d="M29.7687 37.0423C20.6005 37.0423 13.2495 29.6913 13.2495 20.5192C13.2495 11.351 20.6005 4 29.7687 4C38.9369 4 46.2879 11.351 46.2879 20.5192C46.2879 29.6913 38.9369 37.0423 29.7687 37.0423Z" stroke="#7786A5" stroke-width="6.66395" stroke-linecap="round" stroke-linejoin="round"/>
<path d="M146.143 43.5131V55.797" stroke="#7786A5" stroke-width="4.76791" stroke-linecap="round" stroke-linejoin="round"/>
<path d="M152.415 49.6545H139.886" stroke="#7786A5" stroke-width="4.76791" stroke-linecap="round" stroke-linejoin="round"/>
</svg>
